<?xml version="1.0" encoding="UTF-8" standalone="no"?>
<!-- Created with Inkscape (http://www.inkscape.org/) -->

<svg
   xmlns:dc="http://purl.org/dc/elements/1.1/"
   xmlns:cc="http://creativecommons.org/ns#"
   xmlns:rdf="http://www.w3.org/1999/02/22-rdf-syntax-ns#"
   xmlns:svg="http://www.w3.org/2000/svg"
   xmlns="http://www.w3.org/2000/svg"
   xmlns:sodipodi="http://sodipodi.sourceforge.net/DTD/sodipodi-0.dtd"
   xmlns:inkscape="http://www.inkscape.org/namespaces/inkscape"
   sodipodi:docname="Logos.svg"
   inkscape:version="0.91 r13725"
   version="1.1"
   id="svg5043"
   viewBox="0 0 744.09448819 1052.3622047"
   height="297mm"
   width="210mm">
  <defs
     id="defs5045" />
  <sodipodi:namedview
     inkscape:window-maximized="1"
     inkscape:window-y="-8"
     inkscape:window-x="-8"
     inkscape:window-height="705"
     inkscape:window-width="1024"
     showgrid="false"
     inkscape:current-layer="layer1"
     inkscape:document-units="px"
     inkscape:cy="591.84342"
     inkscape:cx="285.14202"
     inkscape:zoom="0.35"
     inkscape:pageshadow="2"
     inkscape:pageopacity="0.0"
     borderopacity="1.0"
     bordercolor="#666666"
     pagecolor="#ffffff"
     id="base" />
  <metadata
     id="metadata5048">
    <rdf:RDF>
      <cc:Work
         rdf:about="">
        <dc:format>image/svg+xml</dc:format>
        <dc:type
           rdf:resource="http://purl.org/dc/dcmitype/StillImage" />
      </cc:Work>
    </rdf:RDF>
  </metadata>
  <g
     inkscape:label="Layer 1"
     inkscape:groupmode="layer"
     id="layer1">
    <g
       id="lgpl"
       transform="matrix(1.4990013,0,0,1.4990013,-549.46758,73.516289)"
       inkscape:export-xdpi="108"
       inkscape:export-ydpi="108"
       inkscape:label="">
      <path
         inkscape:connector-curvature="0"
         d="m 640.37466,585.37975 c 0,0 -0.006,0 -0.006,0 -0.61745,0 -1.16252,0.20354 -1.67483,0.61733 -0.38093,0.30205 -0.64359,0.70934 -0.85374,1.16252 0,0 0.0263,0 0.0263,0 0.21016,-0.45318 0.47282,-0.86047 0.84723,-1.16252 0.51232,-0.41379 1.05739,-0.61082 1.66159,-0.61733 z"
         id="path3717"
         style="fill:#bd0000;fill-opacity:1;fill-rule:evenodd;stroke:none;stroke-width:1pt;stroke-linecap:butt;stroke-linejoin:miter" />
      <path
         inkscape:connector-curvature="0"
         d="m 640.39441,585.37975 c -0.007,0 -0.0132,0 -0.0198,0 0.63708,0.007 1.05739,0.22328 1.3398,0.68959 0.12477,0.19703 0.19052,0.49257 0.19052,0.86687 0,0.0658 -0.0131,0.15114 -0.0198,0.22339 0,0 0.0263,0 0.0263,0 0,-0.0722 0.0131,-0.15764 0.0131,-0.22339 0,-0.3743 -0.0591,-0.66984 -0.1839,-0.86687 -0.28241,-0.47293 -0.70922,-0.68959 -1.3463,-0.68959 z"
         id="path3721"
         style="fill:#bd0000;fill-opacity:1;fill-rule:evenodd;stroke:none;stroke-width:1pt;stroke-linecap:butt;stroke-linejoin:miter" />
      <g
         transform="matrix(0.385154,0,0,0.385154,761.04039,896.78783)"
         id="g3723"
         style="fill:#008033;fill-opacity:1">
        <g
           transform="matrix(1.705222,0,0,1.705222,-769.6823,-728.9956)"
           id="g3725"
           style="fill:#008033;fill-opacity:1;fill-rule:evenodd;stroke:none;stroke-width:1pt;stroke-linecap:butt;stroke-linejoin:miter">
          <path
             inkscape:connector-curvature="0"
             d="m 0,36 c 0,0 7.46,0 7.46,0 0,0 3.35,-14 3.35,-14 0,0 12.12,0 12.12,0 0,0 1.56,-6 1.56,-6 0,0 -12.17,0 -12.17,0 0,0 2.02,-9 2.02,-9 0,0 12.95,0 12.95,0 0,0 1.56,-7 1.56,-7 C 28.85,0 8.4,0 8.4,0 8.4,0 0,36 0,36 Z"
             id="path3727"
             style="fill:#008033;fill-opacity:1" />
        </g>
        <g
           transform="matrix(1.705222,0,0,1.705222,-725.4318,-711.9434)"
           id="g3729"
           style="fill:#008033;fill-opacity:1;fill-rule:evenodd;stroke:none;stroke-width:1pt;stroke-linecap:butt;stroke-linejoin:miter">
          <path
             inkscape:connector-curvature="0"
             d="m 7.51,26 c 0,0 2.24,-9.4 2.24,-9.4 1.18,-5.09 3.67,-9.6 8.38,-9.6 0.42,0 0.83,0.21 1.14,0.26 0,0 1.82,-7.21 1.82,-7.21 -0.42,0 -0.88,-0.05 -1.4,-0.05 -3.47,0 -6.38,2.44 -8.32,5.94 0,0 -0.2,0 -0.2,0 C 11.46,4.23 11.71,2.61 11.9,1 11.9,1 5.47,1 5.47,1 5.1,3.08 4.53,7.15 3.66,10.82 3.66,10.82 0,26 0,26 c 0,0 7.51,0 7.51,0 z"
             id="path3731"
             style="fill:#008033;fill-opacity:1" />
        </g>
        <g
           transform="matrix(1.705222,0,0,1.705222,-690.253,-711.9434)"
           id="g3733"
           style="fill:#008033;fill-opacity:1;fill-rule:evenodd;stroke:none;stroke-width:1pt;stroke-linecap:butt;stroke-linejoin:miter">
          <path
             inkscape:connector-curvature="0"
             d="M 20.06,19.25 C 17.99,20.26 15.63,20 12.88,20 10.71,20 9.03,19.62 8.11,18.88 7.63,18.07 7.43,16.81 7.47,16 17.6,16.27 23.99,13.93 24.31,7.53 24.55,2.7 21.02,0 15.89,0 6.73,0 0.73,8.08 0.34,15.86 0,22.65 3.52,26 10.78,26 c 2.79,0 6.49,-0.32 9.52,-1.23 0,0 -0.24,-5.52 -0.24,-5.52 z M 17.32,7.53 C 17.2,9.91 14.26,10.05 8.47,10 9.1,7.91 11.22,6 14.69,6 c 1.71,0 2.69,0.65 2.63,1.53 z"
             id="path3735"
             style="fill:#008033;fill-opacity:1" />
        </g>
        <g
           transform="matrix(1.705222,0,0,1.705222,-645.0305,-711.9434)"
           id="g3737"
           style="fill:#008033;fill-opacity:1;fill-rule:evenodd;stroke:none;stroke-width:1pt;stroke-linecap:butt;stroke-linejoin:miter">
          <path
             inkscape:connector-curvature="0"
             d="M 20.05,19.25 C 17.98,20.26 15.62,20 12.88,20 10.7,20 9.03,19.62 8.11,18.88 7.63,18.07 7.42,16.81 7.46,16 17.6,16.27 23.98,13.93 24.31,7.53 24.55,2.7 21.02,0 15.89,0 6.72,0 0.72,8.08 0.33,15.86 0,22.65 3.52,26 10.77,26 c 2.8,0 6.5,-0.32 9.53,-1.23 0,0 -0.25,-5.52 -0.25,-5.52 z M 17.32,7.53 C 17.2,9.91 14.26,10.05 8.46,10 9.1,7.91 11.21,6 14.68,6 c 1.71,0 2.7,0.65 2.64,1.53 z"
             id="path3739"
             style="fill:#008033;fill-opacity:1" />
        </g>
        <g
           transform="matrix(1.705222,0,0,1.705222,-583.796,-711.9434)"
           id="g3741"
           style="fill:#008033;fill-opacity:1;fill-rule:evenodd;stroke:none;stroke-width:1pt;stroke-linecap:butt;stroke-linejoin:miter">
          <path
             inkscape:connector-curvature="0"
             d="M 22.74,26 C 22.8,22.83 23.56,17.85 24.35,14.58 24.35,14.58 27.56,1 27.56,1 25.52,0.31 22.34,0 19.28,0 6.86,0 0.7,9.2 0.27,17.82 0,23.23 2.93,26 7.49,26 c 2.95,0 6.28,-1.43 8.87,-5.73 0,0 0.11,0 0.11,0 -0.2,2.07 -0.44,4.08 -0.57,5.73 0,0 6.84,0 6.84,0 z M 17.61,11.72 C 16.15,18.08 13.17,20 10.95,20 8.88,20 7.98,18.53 8.1,16.39 8.34,11.56 12.16,6 16.98,6 c 0.78,0 1.39,-0.14 1.96,-0.28 0,0 -1.33,6 -1.33,6 z"
             id="path3743"
             style="fill:#008033;fill-opacity:1" />
        </g>
        <g
           transform="matrix(1.705222,0,0,1.705222,-536.6807,-711.9434)"
           id="g3745"
           style="fill:#008033;fill-opacity:1;fill-rule:evenodd;stroke:none;stroke-width:1pt;stroke-linecap:butt;stroke-linejoin:miter">
          <path
             inkscape:connector-curvature="0"
             d="m 0,24.82 c 1.44,1.12 4.46,1.13 7.61,1.18 6.73,0.05 11.81,-2.89 12.11,-8.29 0.17,-3.6 -2.62,-5.73 -5.35,-7.16 C 12.4,9.6 11.41,8.69 11.46,7.63 11.53,6.2 12.87,6 14.84,6 c 2.22,0 4,0.27 5.02,0.47 0,0 2.02,-5.42 2.02,-5.42 C 20.73,0.36 18.43,0 15.48,0 8.95,0 4.17,3.45 3.9,8.69 c -0.16,3.24 2.17,5.42 4.99,6.9 2.28,1.17 3.06,2.07 3,3.34 C 11.82,20.21 10.68,20 8.61,20 6.18,20 3.49,19.68 2.07,19.46 2.07,19.46 0,24.82 0,24.82 Z"
             id="path3747"
             style="fill:#008033;fill-opacity:1" />
        </g>
        <g
           transform="matrix(1.705222,0,0,1.705222,-481.3463,-730.7008)"
           id="g3749"
           style="fill:#008033;fill-opacity:1;fill-rule:evenodd;stroke:none;stroke-width:1pt;stroke-linecap:butt;stroke-linejoin:miter">
          <path
             inkscape:connector-curvature="0"
             d="m 7.45,37 c 0,0 6.05,-25 6.05,-25 0,0 -7.41,0 -7.41,0 0,0 -6.09,25 -6.09,25 0,0 7.45,0 7.45,0 z M 10.92,9 C 13.46,9 15.72,6.9 15.86,3.3 15.98,0.86 14.4,0 12.07,0 9.64,0 7.42,1.58 7.29,3.94 7.17,6.32 8.75,9 10.92,9 Z"
             id="path3751"
             style="fill:#008033;fill-opacity:1" />
        </g>
        <g
           transform="matrix(1.705222,0,0,1.705222,-456.9787,-710.7668)"
           id="g3753"
           style="fill:#008033;fill-opacity:1;fill-rule:evenodd;stroke:none;stroke-width:1pt;stroke-linecap:butt;stroke-linejoin:miter">
          <path
             inkscape:connector-curvature="0"
             d="m 7.46,25.31 c 0,0 2.64,-11.26 2.64,-11.26 1.37,-5.73 4.32,-7.74 6.75,-7.74 1.92,0 2.48,0.82 2.39,2.01 -0.05,0.96 -0.2,1.97 -0.4,2.87 0,0 -3.36,14.12 -3.36,14.12 0,0 7.46,0 7.46,0 0,0 3.54,-14.81 3.54,-14.81 C 26.75,9.22 27.05,7.31 27.11,6.15 27.33,1.64 25.08,0 20.94,0 c -3.32,0 -6.55,1.54 -9.1,4.88 0,0 -0.1,0 -0.1,0 0,0 0.68,-4.57 0.68,-4.57 0,0 -6.58,0 -6.58,0 C 5.41,2.45 4.86,5.04 4.08,8.06 4.08,8.06 0,25.31 0,25.31 c 0,0 7.46,0 7.46,0 z"
             id="path3755"
             style="fill:#008033;fill-opacity:1" />
        </g>
        <g
           transform="matrix(1.705222,0,0,1.705222,-389.5201,-728.9956)"
           id="g3757"
           style="fill:#008033;fill-opacity:1;fill-rule:evenodd;stroke:none;stroke-width:1pt;stroke-linecap:butt;stroke-linejoin:miter">
          <path
             inkscape:connector-curvature="0"
             d="m 0,36 c 0,0 7.46,0 7.46,0 0,0 3.36,-14 3.36,-14 0,0 12.11,0 12.11,0 0,0 1.56,-6 1.56,-6 0,0 -12.17,0 -12.17,0 0,0 2.02,-9 2.02,-9 0,0 12.95,0 12.95,0 0,0 1.56,-7 1.56,-7 C 28.85,0 8.4,0 8.4,0 8.4,0 0,36 0,36 Z"
             id="path3759"
             style="fill:#008033;fill-opacity:1" />
        </g>
        <g
           transform="matrix(1.705222,0,0,1.705222,-345.2696,-711.9434)"
           id="g3761"
           style="fill:#008033;fill-opacity:1;fill-rule:evenodd;stroke:none;stroke-width:1pt;stroke-linecap:butt;stroke-linejoin:miter">
          <path
             inkscape:connector-curvature="0"
             d="m 7.51,26 c 0,0 2.24,-9.4 2.24,-9.4 1.18,-5.09 3.67,-9.6 8.38,-9.6 0.42,0 0.83,0.21 1.14,0.26 0,0 1.82,-7.21 1.82,-7.21 -0.42,0 -0.88,-0.05 -1.4,-0.05 -3.47,0 -6.38,2.44 -8.32,5.94 0,0 -0.2,0 -0.2,0 C 11.46,4.23 11.71,2.61 11.9,1 11.9,1 5.47,1 5.47,1 5.11,3.08 4.53,7.15 3.66,10.82 3.66,10.82 0,26 0,26 c 0,0 7.51,0 7.51,0 z"
             id="path3763"
             style="fill:#008033;fill-opacity:1" />
        </g>
        <g
           transform="matrix(1.705222,0,0,1.705222,-310.0908,-711.9434)"
           id="g3765"
           style="fill:#008033;fill-opacity:1;fill-rule:evenodd;stroke:none;stroke-width:1pt;stroke-linecap:butt;stroke-linejoin:miter">
          <path
             inkscape:connector-curvature="0"
             d="M 20.06,19.25 C 17.99,20.26 15.63,20 12.88,20 10.71,20 9.03,19.62 8.11,18.88 7.63,18.07 7.43,16.81 7.47,16 17.6,16.27 23.99,13.93 24.31,7.53 24.55,2.7 21.02,0 15.89,0 6.73,0 0.73,8.08 0.34,15.86 0,22.65 3.53,26 10.78,26 c 2.79,0 6.5,-0.32 9.52,-1.23 0,0 -0.24,-5.52 -0.24,-5.52 z M 17.32,7.53 C 17.2,9.91 14.26,10.05 8.47,10 9.1,7.91 11.22,6 14.69,6 c 1.71,0 2.69,0.65 2.63,1.53 z"
             id="path3767"
             style="fill:#008033;fill-opacity:1" />
        </g>
        <g
           transform="matrix(1.705222,0,0,1.705222,-264.8684,-711.9434)"
           id="g3769"
           style="fill:#008033;fill-opacity:1;fill-rule:evenodd;stroke:none;stroke-width:1pt;stroke-linecap:butt;stroke-linejoin:miter">
          <path
             inkscape:connector-curvature="0"
             d="M 20.05,19.25 C 17.98,20.26 15.62,20 12.88,20 10.7,20 9.03,19.62 8.11,18.88 7.63,18.07 7.42,16.81 7.46,16 17.6,16.27 23.98,13.93 24.31,7.53 24.55,2.7 21.02,0 15.89,0 6.72,0 0.72,8.08 0.33,15.86 0,22.65 3.52,26 10.77,26 c 2.8,0 6.5,-0.32 9.53,-1.23 0,0 -0.25,-5.52 -0.25,-5.52 z M 17.32,7.53 C 17.2,9.91 14.26,10.05 8.46,10 9.1,7.91 11.21,6 14.68,6 c 1.71,0 2.7,0.65 2.64,1.53 z"
             id="path3771"
             style="fill:#008033;fill-opacity:1" />
        </g>
        <g
           transform="matrix(1.705222,0,0,1.705222,-219.8846,-730.7008)"
           id="g3773"
           style="fill:#008033;fill-opacity:1;fill-rule:evenodd;stroke:none;stroke-width:1pt;stroke-linecap:butt;stroke-linejoin:miter">
          <path
             inkscape:connector-curvature="0"
             d="M 23.31,0 C 23.31,0 20.5,11.36 20.5,11.36 19.48,10.94 18.15,11 17.11,11 7.53,11 0.75,19.2 0.3,28.08 0,34.34 3.34,37 7.64,37 c 3.01,0 6.18,-1.33 8.58,-4.77 0,0 0.1,0 0.1,0 0,0 -0.57,4.77 -0.57,4.77 0,0 6.78,0 6.78,0 0.31,-3 0.96,-6.57 1.69,-9.83 0,0 6.49,-27.17 6.49,-27.17 0,0 -7.4,0 -7.4,0 z M 17.47,24.42 C 16.3,29.35 13.54,31 11.36,31 9.19,31 7.98,29.49 8.13,26.8 8.38,21.82 11.8,17 16.25,17 c 1.25,0 2.32,0.19 2.91,0.47 0,0 -1.69,6.95 -1.69,6.95 z"
             id="path3775"
             style="fill:#008033;fill-opacity:1" />
        </g>
        <g
           transform="matrix(1.705222,0,0,1.705222,-169.2225,-711.9434)"
           id="g3777"
           style="fill:#008033;fill-opacity:1;fill-rule:evenodd;stroke:none;stroke-width:1pt;stroke-linecap:butt;stroke-linejoin:miter">
          <path
             inkscape:connector-curvature="0"
             d="M 10.61,26 C 19.31,26 26.02,19.41 26.49,10.44 26.78,4.5 23.08,0 16.25,0 7.23,0 0.76,7.3 0.31,16.12 0,22.54 4.14,26 10.61,26 Z m 1.17,-6 C 9.24,20 7.84,18.38 7.99,15.96 8.19,11.93 10.68,6 14.97,6 c 2.96,0 3.87,2.27 3.75,4.5 -0.22,4.4 -2.9,9.5 -6.94,9.5 z"
             id="path3779"
             style="fill:#008033;fill-opacity:1" />
        </g>
        <g
           transform="matrix(1.705222,0,0,1.705222,-120.5213,-711.9434)"
           id="g3781"
           style="fill:#008033;fill-opacity:1;fill-rule:evenodd;stroke:none;stroke-width:1pt;stroke-linecap:butt;stroke-linejoin:miter">
          <path
             inkscape:connector-curvature="0"
             d="M 7.2,26 C 7.2,26 9.9,14.58 9.9,14.58 11.03,9.49 13.85,6 16.38,6 c 1.82,0 2.32,1.33 2.23,3.07 -0.05,0.9 -0.25,1.91 -0.46,2.91 0,0 -3.34,14.02 -3.34,14.02 0,0 7.2,0 7.2,0 0,0 2.7,-11.47 2.7,-11.47 C 25.95,9.28 28.61,6 31.09,6 c 1.71,0 2.42,1.22 2.34,2.96 -0.05,1.01 -0.26,2.12 -0.52,3.13 0,0 -3.24,13.91 -3.24,13.91 0,0 7.25,0 7.25,0 0,0 3.49,-14.81 3.49,-14.81 0.27,-1.33 0.58,-3.4 0.63,-4.46 C 41.26,2.33 39.11,0 35.23,0 31.91,0 28.68,1.5 26.23,4.66 26.14,2.38 24.51,0 20.47,0 17.2,0 14.08,1.48 11.58,4.83 c 0,0 -0.1,0 -0.1,0 0,0 0.67,-3.83 0.67,-3.83 0,0 -6.42,0 -6.42,0 C 5.31,3.14 4.8,5.73 4.02,8.75 4.02,8.75 0,26 0,26 c 0,0 7.2,0 7.2,0 z"
             id="path3783"
             style="fill:#008033;fill-opacity:1" />
        </g>
      </g>
      <path
         inkscape:connector-curvature="0"
         id="path3785"
         sodipodi:nodetypes="cccccssccccscccsccc"
         d="m 657.13929,595.58958 c 0.26666,0.68536 0.53332,1.3697 0.81093,2.03897 0.42773,0.90933 0.92212,1.77962 1.51639,2.59227 3.21051,4.36412 8.58716,6.75365 15.41365,7.3485 0,0 7.34291,0 7.34291,0 2.32184,-0.18105 4.75463,-0.51871 7.27635,-1.01196 4.34917,-0.85042 8.95941,-2.15677 13.74726,-3.90261 3.62705,-1.32244 7.3541,-2.88712 11.13674,-4.70566 8.23717,-3.94873 16.74659,-9.0416 25.09494,-15.18751 2.74946,-2.02243 5.38784,-4.09759 7.92063,-6.20768 2.32184,-1.9319 4.54917,-3.8937 6.67649,-5.8772 5.93771,-5.72218 10.42009,-11.53375 12.95848,-16.63666 2.64398,-5.31398 3.17158,-9.85744 1.00544,-12.71967 -1.32758,-1.75691 -3.54931,-2.69843 -6.40983,-2.92 12.88622,-9.6692 20.3959,-21.39849 17.70204,-28.79368 -0.85545,-2.36008 -2.73838,-4.12087 -5.43783,-5.09458 -1.19973,-0.43149 -2.54958,-0.70489 -4.02144,-0.82931 0,0 -3.96586,0 -3.96586,0 -5.53783,0.39941 -13.59087,2.38234 -20.42272,5.73052"
         style="fill:#aa0000;fill-opacity:0;fill-rule:evenodd;stroke:#007f32;stroke-width:3.28386545;stroke-linecap:butt;stroke-linejoin:miter;stroke-miterlimit:4;stroke-opacity:1" />
      <path
         inkscape:connector-curvature="0"
         d="m 470.04794,506.2519 c 0,0 -22.07313,99.66531 -22.07313,99.66531 0.007,0 42.56794,0 42.58107,0 26.42493,0 105.67893,0 105.67893,0 0,0 54.9637,0 54.9637,0 -6.54807,-0.57144 -11.71765,-2.87011 -14.79791,-7.06027 -0.57144,-0.77509 -1.04346,-1.60999 -1.45726,-2.48348 -0.26266,-0.64358 -0.5098,-1.29299 -0.75933,-1.94982 -0.65683,-2.08851 -0.91869,-4.40613 -0.80043,-6.87557 0.3283,-6.88299 3.55798,-15.07028 9.1538,-23.64385 5.94376,-9.11134 14.55808,-18.66103 25.22417,-27.52284 2.39056,-1.98475 4.86251,-3.94473 7.45021,-5.84946 3.19852,-2.35312 6.42159,-4.5204 9.64637,-6.54716 11.881,-7.48 23.73244,-12.71396 34.23426,-15.37255 -10.0354,3.27398 -21.3098,8.83213 -32.4487,16.39877 -0.40056,0.27054 -0.79632,0.5477 -1.19037,0.82098 -6.18028,4.28217 -11.77918,8.82996 -16.66566,13.42273 -15.72311,14.78399 -24.03368,30.10323 -20.25732,39.07805 0.26928,0.61733 0.59027,1.20681 0.96469,1.76512 4.05877,5.97001 14.11814,7.00194 26.86612,3.79691 0.86698,-0.21678 1.73385,-0.4622 2.62708,-0.71836 4.07202,-1.17564 8.39516,-2.76338 12.84809,-4.7205 1.07052,-0.47293 2.15256,-0.95888 3.24282,-1.47781 0.11164,-0.0525 0.21677,-0.10502 0.32841,-0.16415 14.0549,-6.98344 24.85637,-15.01891 27.19454,-19.84683 0.5122,-1.05019 0.63537,-1.9456 0.28732,-2.64763 -1.66821,-3.38242 -13.34157,-1.09734 -27.48186,5.02837 -1.13626,0.49257 -2.28554,0.99951 -3.44806,1.53933 0.94575,-0.87805 1.93008,-1.75953 2.93495,-2.62708 1.60246,-1.38055 3.26165,-2.7305 5.02838,-4.06379 2.76509,-2.09377 5.56043,-3.98663 8.31228,-5.66465 12.88587,-9.7216 19.40027,-18.91776 18.04072,-22.33031 -0.25604,-0.64302 -0.80122,-1.08524 -1.64195,-1.35453 -2.6861,-0.85453 -7.5889,0.1653 -13.5459,2.60654 -4.91262,2.015 -10.55513,5.00349 -16.2756,8.72277 0,0 -0.77989,0.51311 -0.77989,0.51311 0,0 -0.14371,0.0821 -0.14371,0.0821 0,0 -2.75025,1.82665 -2.75025,1.82665 0,0 1.58031,-2.89397 1.58031,-2.89397 2.34479,-4.29198 6.16384,-8.77014 10.91893,-12.93017 3.48744,-3.04156 7.47156,-5.90734 11.76034,-8.4149 1.62221,-0.94974 3.24202,-1.83179 4.86423,-2.62708 1.66158,-0.81185 3.32409,-1.53329 4.94629,-2.17562 4.71309,-1.86386 9.89054,-4.21766 13.81393,-4.52565 -0.35729,0 -11.69996,1.22131 -11.69996,1.22131 0,0 -37.14865,0 -37.14865,0 0,0 -163.80338,0 -163.80338,0 0,0 -56.32262,0 -56.32262,0 z m 161.18057,0.14372 c -0.64358,9.8233 1.26103,24.21153 5.58258,40.18623 0.76835,2.84248 1.60497,5.73531 2.52446,8.66124 0.57144,1.80679 1.16081,3.58527 1.76512,5.33624 -0.35466,0.52144 -0.71184,1.03969 -1.04677,1.55988 -5.39217,8.26354 -8.54378,16.07287 -9.3385,22.86385 -2.27903,-7.63171 -3.99484,-15.99091 -4.96684,-24.85477 -0.27591,-2.53975 -0.49177,-5.05097 -0.63628,-7.53228 -1.06401,-18.02384 1.28899,-34.36245 6.11623,-46.22039 z m -107.6082,12.78645 c 0.12306,-0.003 0.24429,0 0.3694,0 0,0 24.28013,0 24.28013,0 2.07539,0 3.68036,0.38903 4.82324,1.16994 1.13615,0.78547 1.56228,1.80153 1.293,3.03757 0,0 -2.89397,13.07388 -2.89397,13.07388 0,0 -8.55851,0 -8.55851,0 0,0 2.81178,-12.72504 2.81178,-12.72504 0,0 -21.42726,0 -21.42726,0 0,0 -7.73753,34.97328 -7.73753,34.97328 0,0 -2.79134,12.66339 -2.79134,12.66339 0,0 21.40671,0 21.40671,0 0,0 0.0205,-0.0822 0.0205,-0.0822 0,1.1e-4 4.28947,-19.3747 4.28947,-19.3747 0,-1.2e-4 -10.05674,0 -10.05674,0 0,-1.2e-4 0.96458,-4.37166 0.96458,-4.37166 0,0 18.61548,0 18.61548,0 0,0 -5.33635,24.1774 -5.33635,24.1774 -0.0723,0.34416 -0.19863,0.65603 -0.3694,0.96469 -0.44005,0.80123 -1.20772,1.48751 -2.27823,2.05233 -1.48431,0.7816 -3.26085,1.16994 -5.33624,1.16994 0,0 -24.25959,0 -24.25959,0 -2.07539,0 -3.68036,-0.38834 -4.82313,-1.16994 -1.13626,-0.78148 -1.56889,-1.77962 -1.29299,-3.01702 0,0 10.69303,-48.33436 10.69303,-48.33436 0.27579,-1.23604 1.13626,-2.2521 2.62708,-3.03757 0.0525,-0.0282 0.11164,-0.0347 0.16415,-0.0615 1.3608,-0.68171 2.95778,-1.06481 4.80269,-1.10841 z m 38.05183,0 c 0,0 30.5604,0 30.5604,0 2.04913,0 3.65993,0.38903 4.8027,1.16994 1.14939,0.78547 1.58944,1.80153 1.31354,3.03757 0,0 -5.70575,25.77837 -5.70575,25.77837 -0.26917,1.22815 -1.15019,2.23017 -2.64763,3.01702 -1.49744,0.78947 -3.26005,1.19037 -5.31569,1.19037 0,0 -22.20714,0 -22.20714,0 0,0 -4.28959,19.35427 -4.28959,19.35427 0,0 -0.69781,3.18129 -0.69781,3.18129 0,0 -8.37381,0 -8.37381,0 0,0 0.63617,-2.87342 0.63617,-2.87342 0,0 11.92461,-53.85541 11.92461,-53.85541 z m 42.21812,0 c 0,0 8.37392,0 8.37392,0 0,0 -9.4821,42.83397 -9.4821,42.83397 0,0 -2.07299,9.35905 -2.07299,9.35905 0,0 20.03153,0 20.03153,0 0.21026,1.53614 0.45569,3.04488 0.71835,4.53581 0,0 -30.12948,0 -30.12948,0 1.1e-4,0 2.38086,-10.75467 2.38086,-10.75467 0,0 10.17991,-45.97416 10.17991,-45.97416 z m -34.84999,4.55635 c 0,0 -5.56203,25.08057 -5.56203,25.08057 0,0 20.87306,0 20.87306,0 0,0 5.54159,-25.08057 5.54159,-25.08057 0,0 -20.85262,0 -20.85262,0 z m -44.50891,59.19439 c 0.082,-0.003 0.1638,0 0.24633,0 0.972,0 1.82083,0.17066 2.50392,0.49257 0.72897,0.34142 1.2503,0.84883 1.53933,1.51878 0.28241,0.65021 0.35627,1.3882 0.20524,2.19605 0,0 -0.0616,0.30786 -0.0616,0.30786 0,0 -2.40129,0 -2.40129,0 0,0 0.0205,-0.28732 0.0205,-0.28732 0.0621,-0.56447 -0.008,-1.0083 -0.22579,-1.31354 -0.0284,-0.0384 -0.0695,-0.0888 -0.10262,-0.12317 -0.0542,-0.0554 -0.13562,-0.11848 -0.20525,-0.16415 -0.33595,-0.21163 -0.86161,-0.32841 -1.53933,-0.32841 -0.89974,0 -1.5721,0.15684 -2.0319,0.47202 -0.44656,0.30866 -0.72897,0.65351 -0.82098,1.06731 -0.0919,0.42031 0.0591,0.64119 0.16427,0.75934 0.003,0.003 0.0166,0.0169 0.0204,0.0206 0.1331,0.11346 0.5953,0.37932 2.03201,0.71835 1.3003,0.31529 2.16157,0.5985 2.64752,0.84153 0.73559,0.3743 1.2495,0.85956 1.51878,1.45714 0.26929,0.59108 0.32842,1.28318 0.16427,2.0319 -0.16427,0.72908 -0.53617,1.40143 -1.08787,2.03189 -0.54507,0.63058 -1.23877,1.12965 -2.07287,1.47781 -0.8276,0.34142 -1.73556,0.53354 -2.66818,0.53354 -1.18215,0 -2.13121,-0.17899 -2.87331,-0.53354 -0.77509,-0.3678 -1.33408,-0.94826 -1.6625,-1.7036 -0.31529,-0.73559 -0.38252,-1.5705 -0.20524,-2.48336 0,0 0.0615,-0.28732 0.0615,-0.28732 0,0 2.36031,0 2.36031,0 0,0 -0.0205,0.28732 -0.0205,0.28732 -0.0591,0.54507 -8e-4,0.98512 0.14371,1.31354 0.1379,0.31528 0.40068,0.57635 0.82098,0.77988 0.44656,0.21677 1.00488,0.32841 1.64196,0.32841 0.57132,0 1.09345,-0.096 1.55976,-0.26677 0.4598,-0.16426 0.82509,-0.38092 1.08787,-0.65683 0.25604,-0.27579 0.40637,-0.56722 0.47201,-0.8825 0.0656,-0.28241 0.05,-0.52133 -0.0616,-0.71836 -0.12477,-0.21015 -0.37191,-0.39656 -0.75934,-0.5542 0,0 -2.01134,-0.59519 -2.01134,-0.59519 -1.12314,-0.28241 -1.87917,-0.55169 -2.31922,-0.82098 -0.5977,-0.35466 -1.02873,-0.80944 -1.25201,-1.35452 -0.22328,-0.53856 -0.24714,-1.13546 -0.10263,-1.78567 0.15103,-0.69609 0.48686,-1.35863 1.00568,-1.94971 0.52544,-0.59769 1.2035,-1.06651 2.01135,-1.37518 0.71424,-0.2678 1.46593,-0.42487 2.25769,-0.45147 z m 21.55031,0.041 c 0.1299,-0.01 0.25205,0 0.39006,0 0,0 1.47769,0.16427 1.47769,0.16427 0,0 0.49256,0.041 0.49256,0.041 0,0 -0.71835,1.82665 -0.71835,1.82665 0,0 -0.14361,0.28732 -0.14361,0.28732 0,0 -1.12884,-0.10262 -1.12884,-0.10262 -0.33332,0 -0.57818,0.0515 -0.7389,0.16426 -0.0106,0.008 -0.0312,0.0324 -0.0411,0.041 -0.0215,0.019 -0.0576,0.0518 -0.0821,0.0821 -0.0987,0.12967 -0.21917,0.36128 -0.30776,0.77999 -1.1e-4,0 -0.0428,0.17728 -0.0822,0.32842 0.51881,0 1.76512,0 1.76512,0 0,0 -0.45158,2.03178 -0.45158,2.03178 0,0 -1.29049,0 -1.72403,0 -0.13128,0.59119 -1.74458,7.81972 -1.74458,7.81972 0,0 -2.38074,0 -2.38074,0 0,0 1.54743,-6.94612 1.74457,-7.81972 -0.40067,0 -1.37518,0 -1.37518,0 0,0 0.45158,-2.03178 0.45158,-2.03178 0,0 0.98022,0 1.35464,0 0.0656,-0.28241 0.16415,-0.63628 0.16415,-0.63628 0.14452,-0.65683 0.29554,-1.12885 0.49256,-1.45726 0.26929,-0.45318 0.64941,-0.83239 1.12885,-1.1083 0.39485,-0.22944 0.89426,-0.36665 1.45714,-0.41049 z m 5.6852,0.10262 c 0,0 -0.62224,2.80037 -0.77988,3.50971 0.45969,0 1.53933,0 1.53933,0 0,0 -0.45158,2.03178 -0.45158,2.03178 0,0 -1.13204,0 -1.53934,0 -0.12476,0.56482 -1.10818,4.94641 -1.10818,4.94641 0,0 -0.0822,0.52624 -0.0822,0.67726 1.2e-4,0.005 -3.4e-4,0.0168 0,0.0205 3.5e-4,0.001 -4.5e-4,0.0192 0,0.0205 6.9e-4,10e-4 0.0198,-9.2e-4 0.0206,0 0,0 0.24634,0.0204 0.24634,0.0204 0,0 1.12873,-0.0821 1.12873,-0.0821 0,0 -0.12306,1.82666 -0.12306,1.82666 0,0 0.0206,0.32841 0.0206,0.32841 0,0 -1.62141,0.1847 -1.62141,0.1847 -0.6437,0 -1.11571,-0.10502 -1.45725,-0.32842 -0.36118,-0.23641 -0.57145,-0.54998 -0.65683,-0.94403 -0.0131,-0.0723 -0.041,-0.17739 -0.041,-0.32841 0,-0.29554 0.0558,-0.79553 0.24622,-1.66251 0,0 0.86287,-3.86505 1.04677,-4.67952 -0.30866,0 -1.12884,0 -1.12884,0 0,0 0.45158,-2.03178 0.45158,-2.03178 0,0 0.80043,0 1.12873,0 0.10513,-0.47293 0.47213,-2.09354 0.47213,-2.09354 0,0 1.90873,-1.00568 1.90873,-1.00568 0,0 0.77988,-0.41049 0.77988,-0.41049 z m -75.63152,0.0821 c 0,0 9.23589,0 9.23589,0 0,0 -0.51312,2.29878 -0.51312,2.29878 0,0 -6.16132,0 -6.7524,0 -0.10513,0.46631 -0.52624,2.35449 -0.67726,3.03757 0.85374,0 5.84935,0 5.84935,0 0,0 -0.51311,2.29867 -0.51311,2.29867 0,0 -5.25827,0 -5.84946,0 -0.12466,0.57144 -1.2519,5.64411 -1.2519,5.64411 0,0 -2.48348,0 -2.48348,0 0,0 2.95549,-13.27913 2.95549,-13.27913 z m 12.37608,3.24282 c 0.0927,-0.0113 0.19394,0 0.28732,0 0.59119,0 1.13706,0.17978 1.6625,0.5542 0,0 0.32841,0.22579 0.32841,0.22579 0,0 -1.27256,2.09343 -1.27256,2.09343 0,0 -0.34884,-0.24634 -0.34884,-0.24634 -0.25616,-0.16415 -0.53195,-0.24623 -0.82098,-0.24623 -0.24954,0 -0.48195,0.0887 -0.71836,0.24623 -0.24953,0.16426 -0.45809,0.38183 -0.61573,0.67737 -0.2759,0.50569 -0.47784,1.07211 -0.61573,1.68294 0,0 -1.1083,5.04892 -1.1083,5.04892 0,0 -2.38074,0 -2.38074,0 0,0 2.19604,-9.8515 2.19604,-9.8515 0,0 2.2166,0 2.2166,0 0,0 -0.0764,0.29873 -0.10263,0.41037 0.10502,-0.0788 0.21587,-0.18709 0.30787,-0.24622 0.31814,-0.18984 0.65409,-0.30833 0.98513,-0.34896 z m 7.06038,0 c 0.14326,-0.0109 0.28447,0 0.43092,0 1.33991,0 2.35369,0.46961 3.01714,1.39573 0.41369,0.59758 0.63617,1.33648 0.63617,2.21659 0,0.48594 -0.0599,1.00898 -0.1847,1.58031 0,0 -0.1847,0.71836 -0.1847,0.71836 0,0 -6.02103,0 -6.69087,0 -0.0131,0.13789 -0.0206,0.28572 -0.0206,0.41049 0,0.51231 0.10513,0.91538 0.32841,1.21091 0.10605,0.14452 0.22911,0.27465 0.3694,0.3694 0.2646,0.1726 0.60603,0.26688 1.00567,0.26688 0.48606,0 0.91299,-0.1339 1.31354,-0.38994 0.38093,-0.24303 0.74553,-0.63137 1.06732,-1.16994 0,0 2.54501,0 2.54501,0 0,0 -0.22579,0.49257 -0.22579,0.49257 -0.48595,0.98524 -1.16412,1.75359 -2.01135,2.29878 -0.84723,0.54507 -1.85953,0.84141 -2.97605,0.84141 -1.45143,0 -2.53188,-0.4695 -3.20172,-1.39561 -0.66333,-0.90637 -0.80625,-2.15918 -0.45158,-3.73538 0.35467,-1.60258 1.06241,-2.88324 2.09354,-3.77648 0.92417,-0.80134 1.97288,-1.24585 3.14019,-1.33408 z m 10.69303,0 c 0.14337,-0.0109 0.28446,0 0.43103,0 1.3398,0 2.35369,0.46961 3.01703,1.39573 0.4138,0.59758 0.63628,1.33648 0.63628,2.21659 0,0.47943 -0.0599,0.99494 -0.1847,1.55976 0,0 -0.1847,0.73891 -0.1847,0.73891 0,0 -6.02103,0 -6.69099,0 -0.006,0.0919 -0.0139,0.17488 -0.0204,0.26677 -0.005,0.0345 0.002,0.0869 0,0.12317 -2.3e-4,0.006 0,0.0148 0,0.0205 0,0.0985 0.0139,0.19542 0.0204,0.28731 0.0329,0.37442 0.13059,0.6872 0.30798,0.9236 0.0337,0.046 0.0654,0.10274 0.10251,0.14372 0.30091,0.32179 0.72658,0.49256 1.27256,0.49256 0.48606,0 0.91949,-0.1339 1.31354,-0.38994 0.38093,-0.24303 0.74541,-0.63137 1.06721,-1.16994 0,0 2.56555,0 2.56555,0 0,0 -0.24622,0.49257 -0.24622,0.49257 -0.48606,0.98524 -1.16412,1.75359 -2.01147,2.29878 -0.84723,0.54507 -1.85941,0.84141 -2.97593,0.84141 -1.45155,0 -2.53188,-0.4695 -3.20183,-1.39561 -0.43343,-0.59108 -0.63628,-1.34391 -0.63628,-2.23715 0,-0.13789 0.007,-0.28652 0.0205,-0.43103 0.0264,-0.34143 0.0789,-0.68628 0.16426,-1.0672 0.35467,-1.59596 1.04175,-2.88324 2.07288,-3.77648 0.92428,-0.80134 1.99354,-1.24585 3.16074,-1.33408 z m 29.12381,0 c 0.14668,-0.0112 0.28161,0 0.43103,0 1.36605,0 2.41602,0.46219 3.0991,1.37518 0.67646,0.91287 0.84073,2.14433 0.49256,3.69428 -0.26928,1.20852 -0.65831,2.18463 -1.19037,2.89397 -0.53194,0.70934 -1.21012,1.28888 -2.01135,1.68294 -0.79472,0.39405 -1.63624,0.59518 -2.48348,0.59518 -1.3923,0 -2.42925,-0.47612 -3.0991,-1.39561 -0.43354,-0.58446 -0.65682,-1.33729 -0.65682,-2.23715 0,-0.48594 0.0534,-1.00236 0.18481,-1.58031 0.39405,-1.76021 1.19859,-3.10081 2.38074,-3.96117 0.86778,-0.62646 1.82608,-0.98832 2.85288,-1.06731 z m 36.0609,0 c 0.17317,-0.0106 0.33355,0 0.51311,0 0.8276,0 1.47781,0.0838 1.97037,0.28731 0.52544,0.21027 0.89815,0.50741 1.1083,0.86208 0.20353,0.33492 0.30787,0.7462 0.30787,1.25201 0,0 -0.24634,1.49824 -0.24634,1.49824 0,0 -0.45147,2.03189 -0.45147,2.03189 -0.38755,1.73385 -0.47293,2.38406 -0.49268,2.62709 -0.0196,0.32841 0.0107,0.6486 0.10274,0.94414 0,0 0.16415,0.53355 0.16415,0.53355 0,0 -2.42184,0 -2.42184,0 0,0 -0.10262,-0.30787 -0.10262,-0.30787 -0.0394,-0.1444 -0.028,-0.3283 -0.0411,-0.49256 -0.45969,0.28241 -0.92029,0.53286 -1.33409,0.67737 -0.61071,0.21015 -1.24459,0.3283 -1.88818,0.3283 -1.11651,0 -1.9432,-0.29063 -2.44238,-0.86196 -0.38092,-0.4203 -0.55421,-0.93433 -0.55421,-1.51878 0,-0.22328 0.0297,-0.4549 0.0822,-0.69781 0.11164,-0.49918 0.31438,-0.96138 0.63617,-1.37518 0.31529,-0.40718 0.68799,-0.7421 1.10841,-0.98513 0.40718,-0.24303 0.86116,-0.4154 1.33397,-0.53366 0,0 1.45726,-0.24622 1.45726,-0.24622 1.12314,-0.13139 1.96135,-0.29474 2.56556,-0.47213 0.0131,-0.0656 0.041,-0.14361 0.041,-0.14361 0.0952,-0.42258 0.0833,-0.74027 -0.0204,-0.90305 -0.008,-0.0105 -0.0325,-0.0321 -0.0411,-0.0411 -0.0222,-0.0236 -0.0563,-0.0607 -0.0821,-0.0821 -0.24702,-0.19554 -0.66824,-0.28732 -1.23146,-0.28732 -0.63708,0 -1.1083,0.10422 -1.43671,0.30787 -0.3218,0.20353 -0.61985,0.57624 -0.88251,1.1083 0,0 -2.48348,0 -2.48348,0 0,0 0.22579,-0.49257 0.22579,-0.49257 0.29554,-0.68308 0.64781,-1.2495 1.08775,-1.68305 0.44006,-0.43343 1.03444,-0.76926 1.72403,-1.00567 0.52852,-0.17442 1.10567,-0.29017 1.72403,-0.32841 z m 10.40582,0 c 0.0926,-0.0113 0.19395,0 0.28732,0 0.59759,0 1.1575,0.17978 1.68294,0.5542 0,0 0.30786,0.22579 0.30786,0.22579 0,0 -1.27244,2.09343 -1.27244,2.09343 0,0 -0.34896,-0.24634 -0.34896,-0.24634 -0.25616,-0.16415 -0.51802,-0.24623 -0.80043,-0.24623 -0.24954,0 -0.49588,0.0887 -0.73891,0.24623 -0.24953,0.16426 -0.43103,0.38183 -0.59518,0.67737 -0.26929,0.50569 -0.47773,1.07211 -0.61573,1.68294 0,0 -1.12885,5.04892 -1.12885,5.04892 1.2e-4,0 -2.38074,0 -2.38074,0 0,0 2.19604,-9.8515 2.19604,-9.8515 0,0 2.2166,0 2.2166,0 0,0 -0.0558,0.29873 -0.0821,0.41037 0.10514,-0.0788 0.20936,-0.18709 0.30787,-0.24622 0.313,-0.18984 0.63388,-0.30833 0.96469,-0.34896 z m 7.03972,0 c 0.14326,-0.0109 0.28447,0 0.43104,0 1.3398,0 2.36031,0.46961 3.01702,1.39573 0.42042,0.59758 0.63628,1.33648 0.63628,2.21659 0,0.48594 -0.0805,1.00898 -0.20524,1.58031 0,0 -0.16415,0.71836 -0.16415,0.71836 0,0 -6.02754,0 -6.69099,0 -0.0131,0.13789 -0.041,0.28572 -0.041,0.41049 0,0.51231 0.11164,0.91538 0.32841,1.21091 0.0337,0.046 0.0859,0.10274 0.12306,0.14372 0.0216,0.023 0.0594,0.0607 0.0822,0.0821 0.2936,0.26688 0.69313,0.41048 1.19037,0.41048 0.48594,0 0.91287,-0.1339 1.31354,-0.38994 0.38093,-0.24303 0.7389,-0.63137 1.0672,-1.16994 0,0 2.56556,0 2.56556,0 0,0 -0.24623,0.49257 -0.24623,0.49257 -0.48605,0.98524 -1.17073,1.75359 -2.01146,2.29878 -0.85374,0.54507 -1.85291,0.84141 -2.97593,0.84141 -1.45143,0 -2.51133,-0.4695 -3.18129,-1.39561 -0.66333,-0.90637 -0.82006,-2.15918 -0.47201,-3.73538 0.35467,-1.60258 1.04174,-2.88324 2.07287,-3.77648 0.93011,-0.80134 1.99457,-1.24585 3.16074,-1.33408 z m -35.93773,0.18481 c 0,0 2.44227,0 2.44227,0 0,0 0.30136,5.84604 0.30786,5.93142 0.0985,-0.20935 0.175,-0.38549 0.18481,-0.41049 0,0 2.68861,-5.52093 2.68861,-5.52093 0,0 2.23715,0 2.23715,0 0,0 0.20524,5.77549 0.20524,5.80825 0.0656,-0.11815 3.05812,-5.80825 3.05812,-5.80825 0,0 2.42184,0 2.42184,0 0,0 -5.33624,9.8515 -5.33624,9.8515 0,0 -2.19616,0 -2.19616,0 0,0 -0.21255,-5.34195 -0.22568,-5.64411 -0.90636,1.85873 -2.75025,5.64411 -2.75025,5.64411 0,0 -2.25769,0 -2.25769,0 0,0 -0.77988,-9.8515 -0.77988,-9.8515 z m -57.34457,1.86763 c -0.56573,0.0239 -1.07953,0.22784 -1.55976,0.61573 -0.38093,0.30216 -0.63788,0.71676 -0.84153,1.16983 0,1.1e-4 4.04325,0 4.04325,0 0.007,-0.0721 0.0205,-0.16004 0.0205,-0.22568 0,-0.37442 -0.0666,-0.66505 -0.18469,-0.86207 -0.28903,-0.47282 -0.71756,-0.69781 -1.35464,-0.69781 -0.0381,0 -0.0854,-0.002 -0.12317,0 z m 10.69314,0 c -0.56573,0.0239 -1.07964,0.22784 -1.55988,0.61573 -0.38092,0.30216 -0.63126,0.71676 -0.84152,1.16983 0,1.1e-4 4.04336,0 4.04336,0 0.006,-0.0721 0.0204,-0.16004 0.0204,-0.22568 0,-0.37442 -0.0599,-0.66505 -0.1847,-0.86207 -0.0573,-0.096 -0.13492,-0.19155 -0.20524,-0.26678 -0.27419,-0.28332 -0.65158,-0.43103 -1.14939,-0.43103 -0.0381,0 -0.0854,-0.002 -0.12306,0 z m 82.71233,0 c -0.58183,0.0179 -1.12519,0.21495 -1.6214,0.61573 -0.37442,0.30216 -0.63138,0.71676 -0.84153,1.16983 0,1.1e-4 4.02281,0 4.02281,0 0.007,-0.0721 0.0204,-0.16004 0.0204,-0.22568 0,-0.37442 -0.0599,-0.66505 -0.1847,-0.86207 -0.28241,-0.46631 -0.71744,-0.69119 -1.35464,-0.69781 -0.0188,2.3e-4 -0.0223,-5.7e-4 -0.041,0 z m -53.77333,0.0411 c -0.54291,0.0645 -1.04768,0.31209 -1.51879,0.73879 -0.56482,0.51231 -0.97439,1.31685 -1.21092,2.38086 -0.0985,0.44656 -0.1436,0.8284 -0.1436,1.16982 0,0.46631 0.0895,0.83251 0.26677,1.1083 0.0473,0.0709 0.10982,0.14566 0.16415,0.20524 0.292,0.31004 0.69975,0.47213 1.21092,0.47213 0.66334,0 1.24791,-0.24713 1.80622,-0.75945 0.56482,-0.51881 0.96789,-1.33157 1.21092,-2.42183 0.22328,-0.99826 0.19212,-1.74367 -0.12317,-2.2166 -0.30216,-0.45968 -0.74381,-0.67726 -1.35463,-0.67726 -0.10365,0 -0.2073,-0.012 -0.30787,0 z m 37.08724,3.59167 c -0.55831,0.15113 -1.18386,0.2783 -2.01146,0.38994 -0.61733,0.092 -1.05739,0.18892 -1.31354,0.28743 -0.22328,0.0919 -0.40307,0.21917 -0.55409,0.38994 -0.14452,0.16415 -0.24143,0.33652 -0.28732,0.53366 -0.0131,0.0788 -0.0205,0.16004 -0.0205,0.22568 0,0.005 -1.1e-4,0.0153 0,0.0205 6.9e-4,0.0156 -0.002,0.0465 0,0.0615 0.004,0.0298 0.0123,0.0749 0.0205,0.10262 0.003,0.009 0.0171,0.0322 0.0204,0.0411 0.007,0.0177 0.0116,0.0447 0.0205,0.0615 0.009,0.0167 0.03,0.0457 0.0411,0.0616 0.0172,0.0236 0.0406,0.0599 0.0615,0.0821 0.16426,0.1839 0.49176,0.26678 0.96469,0.26678 0.51882,0 1.01801,-0.0985 1.4777,-0.3283 0.45318,-0.2234 0.81846,-0.55672 1.08774,-0.94415 0.19703,-0.27591 0.35467,-0.70032 0.49268,-1.25201 z m -110.47601,-17.13049 12.97408,-56.872 7.63227,0 -11.49133,50.43219 29.63348,0 -1.48276,6.43981 -37.26574,0"
         style="fill:#008033;fill-opacity:1;fill-rule:evenodd;stroke:none;stroke-width:1pt;stroke-linecap:butt;stroke-linejoin:miter;stroke-opacity:1"
         id="path3719"
         sodipodi:nodetypes="ccsccccccccccccsccccccscccccsccscccccccccccccccccccccccccccccccccccccccccccsscccccsscccscccccccccccccccccccccccccsssccccssssssssccscccsscccccssssssscccssscccccccccsssscccccccccccsscccccccsssccccccsssccccccccccccccccccccsccccsssccccccsccscscccssssscccssccsccscscccsssssssscccsscssssccsccssscsccccscscccscccccsscssscccccssssscccscccsccccsscccccccsccssscccssssssccccscsccccccccscccccccccsscsssccsscssssccsscsssccsssssssssscccsssssssssssssscccccccc" />
    </g>
    <g
       transform="matrix(1.8766934,0,0,1.8766934,88.754075,394.27142)"
       id="gpl"
       inkscape:export-xdpi="108"
       inkscape:export-ydpi="108"
       inkscape:label="">
      <path
         inkscape:connector-curvature="0"
         d="m 47.554121,37.075609 c 7e-6,-4e-6 -21.97209,95.863871 -21.97209,95.863871 0.0063,0 0.0071,0 0.01974,0 0,0 101.648079,0 101.648079,0 0,0 52.86726,0 52.86726,0 -6.29827,-0.54959 -11.27071,-2.76063 -14.23349,-6.79101 -0.54959,-0.74544 -1.00365,-1.54851 -1.40164,-2.38871 -0.25268,-0.61908 -0.49037,-1.2437 -0.73043,-1.87542 -0.63173,-2.00888 -0.88362,-4.23807 -0.76991,-6.61334 0.31587,-6.62046 3.42236,-14.49551 8.80464,-22.742009 5.71708,-8.763892 14.00291,-17.949286 24.26208,-26.473114 2.29946,-1.909069 4.67711,-3.794284 7.1661,-5.626281 3.07648,-2.263454 6.17667,-4.347988 9.27843,-6.297485 11.42785,-7.194686 22.82728,-12.229037 32.92852,-14.78625 -9.65271,3.149136 -20.49702,8.495247 -31.21103,15.77332 -0.38534,0.260269 -0.76596,0.526855 -1.145,0.789651 -5.94451,4.118833 -11.32994,8.493196 -16.02995,12.910825 -15.12344,14.220082 -23.11709,28.954997 -19.48469,37.587483 0.25901,0.59382 0.56776,1.16079 0.92784,1.69776 3.90404,5.74235 13.57967,6.73494 25.8414,3.65214 0.83387,-0.20848 1.66774,-0.44457 2.52688,-0.69094 3.91668,-1.1308 8.075,-2.65798 12.35807,-4.54051 1.0297,-0.45484 2.07048,-0.92232 3.11913,-1.42138 0.10739,-0.0505 0.20847,-0.10107 0.31586,-0.15793 13.51886,-6.7171 23.90833,-14.446066 26.15726,-19.089859 0.49275,-1.010113 0.61119,-1.871322 0.27638,-2.546629 -1.60457,-3.253366 -12.83265,-1.05545 -26.43364,4.836623 -1.09288,0.473786 -2.19839,0.961323 -3.31654,1.480598 0.90968,-0.844604 1.85648,-1.692381 2.82301,-2.52689 1.5414,-1.327882 3.13729,-2.626383 4.83662,-3.908776 2.65956,-2.013939 5.34833,-3.83456 7.99524,-5.448606 12.39439,-9.350747 18.66029,-18.196137 17.35263,-21.478561 -0.24638,-0.618463 -0.77071,-1.043925 -1.57931,-1.302931 -2.58376,-0.821862 -7.29955,0.159036 -13.02927,2.507149 -4.72528,1.938133 -10.15257,4.812619 -15.65487,8.390066 0,0 -0.75017,0.493532 -0.75017,0.493532 0,0 -0.13819,0.07896 -0.13819,0.07896 0,8e-6 -2.64534,1.756979 -2.64534,1.756979 -1e-5,-4e-6 1.52008,-2.783526 1.52008,-2.783526 2.25526,-4.128311 5.92872,-8.435703 10.50238,-12.437032 3.35445,-2.925509 7.18664,-5.682028 11.31179,-8.093945 1.56035,-0.913463 3.11833,-1.761873 4.67869,-2.526887 1.59826,-0.780811 3.1973,-1.47476 4.75766,-2.092582 4.53329,-1.792802 8.86067,-2.882135 12.63444,-3.178354 -0.34367,-4e-6 -10.60109,0 -10.60109,0 1e-5,-4e-6 -35.73179,0 -35.73179,0 0,-4e-6 -157.555515,0 -157.555515,0 0,-4e-6 -12.496256,0 -12.496256,0 z m 113.354679,0.13819 c -0.61907,9.448672 1.21291,23.288134 5.36965,38.653511 0.73911,2.734098 1.54376,5.516516 2.42818,8.330842 0.5496,1.73786 1.11657,3.448575 1.69775,5.132743 -0.34112,0.501592 -0.68463,1.000018 -1.00681,1.50034 -5.18643,7.948324 -8.21792,15.459825 -8.9823,21.991835 -2.19208,-7.34062 -3.84245,-15.381014 -4.7774,-23.906743 -0.26532,-2.442873 -0.473,-4.858414 -0.61198,-7.245062 -1.0234,-17.336354 1.23975,-33.051717 5.88291,-44.457466 z M 57.405045,49.512646 c 0.118304,-0.0028 0.234926,0 0.355341,0 0,-7e-6 23.353986,0 23.353986,0 1.996246,-7e-6 3.540015,0.374135 4.63921,1.125254 1.092875,0.755545 1.502715,1.732816 1.243702,2.921715 7e-6,8e-6 -2.783526,12.575223 -2.783526,12.575223 0,1.1e-5 -8.232128,0 -8.232128,0 7e-6,1.1e-5 2.704561,-12.23962 2.704561,-12.23962 -8e-6,0 -20.60994,0 -20.60994,0 -8e-6,0 -7.442482,33.639218 -7.442482,33.639218 7e-6,0 -2.684819,12.180399 -2.684819,12.180399 0,1.1e-5 20.590201,0 20.590201,0 0,1.1e-5 0.01974,-0.07897 0.01974,-0.07897 0,7e-6 4.125934,-18.635811 4.125934,-18.635811 0,-8e-6 -9.673247,0 -9.673247,0 0,-8e-6 0.927841,-4.204902 0.927841,-4.204902 -4e-6,-7e-6 17.905382,0 17.905382,0 0,-7e-6 -5.132745,23.255288 -5.132745,23.255288 -0.06949,0.33101 -0.191093,0.63093 -0.355345,0.92783 -0.423251,0.77071 -1.161577,1.43086 -2.191284,1.97414 -1.427685,0.75176 -3.136504,1.12525 -5.132746,1.12525 0,1e-5 -23.334243,0 -23.334243,0 -1.99625,1e-5 -3.540016,-0.3735 -4.639211,-1.12525 -1.092871,-0.75174 -1.509027,-1.71181 -1.243701,-2.90197 3e-6,-10e-6 10.285225,-46.490827 10.285225,-46.490827 0.265319,-1.188895 1.092886,-2.166178 2.526891,-2.921715 0.05054,-0.02716 0.107394,-0.03332 0.157928,-0.05922 1.308855,-0.655609 2.844927,-1.02412 4.619473,-1.066031 z m 36.600415,0 c -7e-6,-7e-6 29.39483,0 29.39483,0 1.97098,-7e-6 3.52027,0.374135 4.61947,1.125254 1.10552,0.755545 1.52877,1.732816 1.26344,2.921715 1e-5,8e-6 -5.48808,24.795106 -5.48808,24.795106 -0.259,1.181311 -1.10631,2.145168 -2.54663,2.901973 -1.44033,0.759325 -3.13572,1.144996 -5.11301,1.144996 0,0 -21.360107,0 -21.360107,0 0,0 -4.125938,18.61607 -4.125938,18.61607 0,1e-5 -0.671205,3.0599 -0.671205,3.0599 3e-6,1e-5 -8.054462,0 -8.054462,0 0,1e-5 0.611979,-2.76378 0.611979,-2.76378 0,1e-5 11.469713,-51.801234 11.469713,-51.801234 z m 40.6079,0 c 0,-7e-6 8.05446,0 8.05446,0 1e-5,-7e-6 -9.12049,41.20014 -9.12049,41.20014 1e-5,8e-6 -1.99387,9.002049 -1.99387,9.002049 0,1.1e-5 19.26753,0 19.26753,0 0.20216,1.477605 0.43826,2.928815 0.69095,4.362825 -1e-5,1e-5 -28.98027,0 -28.98027,0 10e-6,1e-5 2.28999,-10.344451 2.28999,-10.344451 1e-5,0 9.7917,-44.220563 9.7917,-44.220563 z m -33.52077,4.382572 c 1e-5,0 -5.349897,24.123896 -5.349897,24.123896 0,-7e-6 20.076927,0 20.076927,0 0,-7e-6 5.33016,-24.123896 5.33016,-24.123896 0,0 -20.05719,0 -20.05719,0 z M 84.213758,107.868 c 0.07879,-0.003 0.157536,0 0.236901,0 0.934949,1e-5 1.751447,0.16425 2.408438,0.47379 0.701214,0.32849 1.202643,0.8165 1.480602,1.46086 0.271642,0.62541 0.342708,1.3353 0.197409,2.11232 0,1e-5 -0.05922,0.29612 -0.05922,0.29612 4e-6,-1e-5 -2.309736,0 -2.309736,0 -7e-6,-1e-5 0.01974,-0.27638 0.01974,-0.27638 0.05971,-0.54289 -0.0076,-0.9698 -0.217158,-1.26344 -0.02731,-0.0368 -0.06688,-0.0854 -0.09871,-0.11845 -0.05212,-0.0532 -0.130396,-0.11403 -0.197409,-0.15793 -0.323185,-0.20357 -0.828738,-0.31586 -1.480602,-0.31586 -0.865458,0 -1.512184,0.15082 -1.954388,0.45405 -0.429574,0.29691 -0.701213,0.62857 -0.789654,1.02655 -0.08845,0.4043 0.05685,0.61671 0.157933,0.73043 0.0031,0.003 0.0159,0.0162 0.01973,0.0197 0.128003,0.10908 0.5725,0.36481 1.954391,0.69094 1.250804,0.30323 2.07916,0.57566 2.546633,0.8094 0.707537,0.36007 1.201854,0.82676 1.460864,1.40163 0.258994,0.56856 0.315857,1.23423 0.157928,1.95439 -0.157928,0.70121 -0.515644,1.34794 -1.046292,1.9544 -0.524325,0.60645 -1.191585,1.08656 -1.993876,1.42137 -0.795977,0.32849 -1.669323,0.51327 -2.566371,0.51327 -1.1371,0 -2.049934,-0.17214 -2.763783,-0.51327 -0.745436,-0.35376 -1.28319,-0.91205 -1.599047,-1.63853 -0.303228,-0.70753 -0.367981,-1.51061 -0.197416,-2.3887 0,-1e-5 0.05923,-0.27638 0.05923,-0.27638 0,0 2.270252,0 2.270252,0 0,0 -0.01974,0.27638 -0.01974,0.27638 -0.05686,0.52433 -7.89e-4,0.94758 0.13819,1.26344 0.13266,0.30324 0.385353,0.55434 0.789651,0.75018 0.429567,0.20846 0.966532,0.31585 1.579304,0.31585 0.549601,0 1.051824,-0.0924 1.500344,-0.25663 0.442204,-0.15793 0.7936,-0.3664 1.046289,-0.63172 0.246366,-0.26534 0.39088,-0.54565 0.454051,-0.84888 0.06317,-0.27164 0.04817,-0.50143 -0.05923,-0.69095 -0.120026,-0.20214 -0.357712,-0.3814 -0.730424,-0.53301 0,-1e-5 -1.934657,-0.5725 -1.934657,-0.5725 -1.080242,-0.27164 -1.80751,-0.53065 -2.230764,-0.78965 -0.574875,-0.34113 -0.989438,-0.7786 -1.204225,-1.30293 -0.214784,-0.51802 -0.237682,-1.09209 -0.0987,-1.7175 0.145296,-0.66962 0.468262,-1.30687 0.967321,-1.87542 0.505386,-0.57488 1.157632,-1.02576 1.934653,-1.32267 0.686999,-0.25762 1.409969,-0.4087 2.171542,-0.43431 z m 20.728392,0.0395 c 0.12494,-0.01 0.24242,0 0.37509,0 0,0 1.42137,0.15793 1.42137,0.15793 0,0 0.47379,0.0395 0.47379,0.0395 1e-5,0 -0.69094,1.75697 -0.69094,1.75697 -1e-5,10e-6 -0.13819,0.27638 -0.13819,0.27638 0,-10e-6 -1.08577,-0.0987 -1.08577,-0.0987 -0.3206,0 -0.55611,0.0495 -0.71069,0.15793 -0.0103,0.008 -0.03,0.0312 -0.0395,0.0395 -0.0207,0.0182 -0.0555,0.0499 -0.079,0.079 -0.0951,0.12466 -0.21084,0.34744 -0.29612,0.75017 -1e-5,0 -0.0411,0.17056 -0.079,0.31586 0.49906,0 1.69775,0 1.69775,0 0,0 -0.43431,1.95438 -0.43431,1.95438 0,0 -1.24133,0 -1.65827,0 -0.12635,0.56855 -1.67801,7.52145 -1.67801,7.52145 -10e-6,-1e-5 -2.289996,0 -2.289996,0 -7e-6,-1e-5 1.488496,-6.68125 1.678016,-7.52145 -0.38536,0 -1.32267,0 -1.32267,0 0,0 0.43431,-1.95438 0.43431,-1.95438 0,0 0.94284,0 1.30292,0 0.0632,-0.27164 0.15793,-0.61199 0.15793,-0.61199 0.13898,-0.63172 0.28428,-1.08577 0.47379,-1.40163 0.25902,-0.43588 0.62462,-0.80071 1.08578,-1.06603 0.37983,-0.22071 0.86021,-0.35266 1.40163,-0.39483 z m 5.46835,0.0987 c -1e-5,0 -0.59856,2.69351 -0.75017,3.37577 0.4422,0 1.4806,0 1.4806,0 0,0 -0.43431,1.95438 -0.43431,1.95438 -1e-5,0 -1.08893,0 -1.4806,0 -0.12003,0.54328 -1.06603,4.75767 -1.06603,4.75767 1e-5,-1e-5 -0.079,0.50616 -0.079,0.65146 1e-4,0.005 -3.9e-4,0.0162 0,0.0197 3.1e-4,0.001 -4.4e-4,0.0185 0,0.0197 6.1e-4,0.001 0.019,-7.9e-4 0.0197,0 0,-1e-5 0.2369,0.0197 0.2369,0.0197 0,0 1.08577,-0.079 1.08577,-0.079 0,0 -0.11845,1.75697 -0.11845,1.75697 10e-6,0 0.0198,0.31586 0.0198,0.31586 -10e-6,0 -1.55957,0.17768 -1.55957,0.17768 -0.61908,-1e-5 -1.07314,-0.10107 -1.40163,-0.31586 -0.34744,-0.22743 -0.5496,-0.52907 -0.63173,-0.9081 -0.0126,-0.0695 -0.0395,-0.17057 -0.0395,-0.31586 0,-0.28428 0.0537,-0.76518 0.2369,-1.59905 0,1e-5 0.82992,-3.71769 1.00681,-4.50103 -0.2969,0 -1.08578,0 -1.08578,0 10e-6,0 0.43431,-1.95438 0.43431,-1.95438 -1e-5,0 0.76991,0 1.08577,0 0.10107,-0.45484 0.45405,-2.01362 0.45405,-2.01362 0,1e-5 1.83595,-0.96733 1.83595,-0.96733 0,1e-5 0.75017,-0.39482 0.75017,-0.39482 z m -72.74678,0.079 c 7e-6,0 8.883596,0 8.883596,0 0,0 -0.493531,2.21103 -0.493531,2.21103 0,1e-5 -5.926346,0 -6.494896,0 -0.10107,0.44853 -0.506168,2.26473 -0.651464,2.92172 0.821244,0 5.626278,0 5.626278,0 0,0 -0.493536,2.21102 -0.493536,2.21102 -3e-6,0 -5.057723,0 -5.626277,0 -0.120026,0.5496 -1.204221,5.42887 -1.204221,5.42887 7e-6,-10e-6 -2.388697,0 -2.388697,0 4e-6,-10e-6 2.842748,-12.77264 2.842748,-12.77264 z m 11.904014,3.11914 c 0.08916,-0.011 0.186558,0 0.276381,0 0.56855,0 1.093671,0.17293 1.59905,0.53301 0,0 0.315857,0.21715 0.315857,0.21715 0,0 -1.22396,2.01362 -1.22396,2.01362 0,-1e-5 -0.335599,-0.2369 -0.335599,-0.2369 -0.246373,-0.15792 -0.511695,-0.23689 -0.789654,-0.23689 -0.240057,0 -0.463528,0.0853 -0.690948,0.23689 -0.240049,0.15793 -0.440629,0.36719 -0.592237,0.65147 -0.265326,0.48643 -0.459582,1.03128 -0.592241,1.61879 0,0 -1.066031,4.85636 -1.066031,4.85636 0,-10e-6 -2.289994,0 -2.289994,0 0,-10e-6 2.112323,-9.47583 2.112323,-9.47583 8e-6,0 2.132061,0 2.132061,0 0,0 -0.07344,0.28743 -0.09871,0.39482 0.101078,-0.0758 0.207679,-0.18004 0.296123,-0.2369 0.305992,-0.1826 0.629184,-0.2965 0.947579,-0.33559 z m 6.791018,0 c 0.137883,-0.0104 0.273621,0 0.414571,0 1.288717,0 2.263932,0.45167 2.90197,1.3424 0.397982,0.57487 0.611987,1.28556 0.611987,2.13207 0,0.46746 -0.05765,0.97048 -0.17767,1.52008 0,0 -0.177678,0.69095 -0.177678,0.69095 0,-1e-5 -5.791311,0 -6.43567,0 -0.01264,0.13265 -0.01974,0.27479 -0.01974,0.39482 0,0.49275 0.101074,0.88046 0.315861,1.16474 0.102063,0.13897 0.220389,0.26414 0.355345,0.35534 0.254427,0.16593 0.582865,0.25664 0.967325,0.25664 0.46748,-1e-5 0.878091,-0.12872 1.263443,-0.37509 0.366407,-0.23373 0.71701,-0.60724 1.026551,-1.12525 0,-1e-5 2.447923,0 2.447923,0 0,-1e-5 -0.217151,0.47379 -0.217151,0.47379 -0.467477,0.94759 -1.11973,1.6867 -1.934653,2.21103 -0.81492,0.52433 -1.788565,0.80939 -2.862494,0.80939 -1.396106,0 -2.43529,-0.45168 -3.079648,-1.3424 -0.638035,-0.87179 -0.775436,-2.0768 -0.434306,-3.59293 0.341134,-1.5414 1.021813,-2.77326 2.013614,-3.6324 0.888957,-0.7708 1.897681,-1.19833 3.020422,-1.28318 z m 10.285234,0 c 0.137879,-0.0104 0.273613,0 0.414563,0 1.288721,0 2.26394,0.45167 2.901978,1.3424 0.397985,0.57487 0.61198,1.28556 0.61198,2.13207 0,0.46115 -0.05764,0.95705 -0.177675,1.50034 0,0 -0.177666,0.71069 -0.177666,0.71069 0,-1e-5 -5.791319,0 -6.435674,0 -0.0063,0.0884 -0.01342,0.16819 -0.01974,0.25663 -0.0047,0.0332 0.0021,0.0835 0,0.11845 -1.85e-4,0.006 0,0.0142 0,0.0197 0,0.0948 0.01343,0.18794 0.01974,0.27638 0.03157,0.36008 0.125558,0.66094 0.296119,0.88836 0.03248,0.0442 0.06301,0.0988 0.09871,0.13819 0.289336,0.30954 0.698843,0.47379 1.223964,0.47379 0.46748,-1e-5 0.884411,-0.12872 1.263447,-0.37509 0.366403,-0.23373 0.717002,-0.60724 1.026547,-1.12525 0,-1e-5 2.467665,0 2.467665,0 -4e-6,-1e-5 -0.236897,0.47379 -0.236897,0.47379 -0.467473,0.94759 -1.119726,1.6867 -1.934649,2.21103 -0.814924,0.52433 -1.788565,0.80939 -2.86249,0.80939 -1.396103,0 -2.43529,-0.45168 -3.079648,-1.3424 -0.416939,-0.56856 -0.611984,-1.29267 -0.611984,-2.15181 0,-0.13267 0.0071,-0.27559 0.01974,-0.41457 0.02528,-0.32849 0.07581,-0.66015 0.157932,-1.02655 0.341138,-1.53508 1.002071,-2.77326 1.993872,-3.6324 0.888953,-0.7708 1.917426,-1.19833 3.040168,-1.28318 z m 28.012935,0 c 0.141087,-0.0109 0.270853,0 0.414567,0 1.313986,0 2.323954,0.44457 2.980942,1.32266 0.650682,0.87809 0.808607,2.06257 0.473789,3.55344 -0.259002,1.16237 -0.633296,2.10126 -1.144991,2.78353 -0.511707,0.68226 -1.163952,1.23975 -1.934657,1.61878 -0.76437,0.37904 -1.573777,0.5725 -2.388697,0.5725 -1.339251,0 -2.336584,-0.458 -2.980942,-1.3424 -0.416942,-0.56224 -0.631722,-1.28635 -0.631722,-2.15181 8e-6,-0.46748 0.05133,-0.96417 0.177675,-1.52008 0.379039,-1.69302 1.152889,-2.98252 2.289994,-3.81008 0.834658,-0.6025 1.756419,-0.95063 2.744042,-1.02654 z m 34.685509,0 c 0.16656,-0.0103 0.32079,0 0.49353,0 0.79597,0 1.42138,0.0805 1.89517,0.27637 0.50538,0.20216 0.86388,0.48801 1.06603,0.82914 0.19584,0.32216 0.29612,0.71779 0.29612,1.20421 1e-5,1e-5 -0.2369,1.44112 -0.2369,1.44112 1e-5,0 -0.4343,1.9544 -0.4343,1.9544 -0.37273,1.66774 -0.45484,2.29315 -0.4738,2.52689 -0.019,0.31586 0.0103,0.62382 0.0987,0.9081 1e-5,-1e-5 0.15793,0.51327 0.15793,0.51327 10e-6,-10e-6 -2.32948,0 -2.32948,0 0,-10e-6 -0.0987,-0.29612 -0.0987,-0.29612 -0.0379,-0.13897 -0.0268,-0.31586 -0.0395,-0.47379 -0.4422,0.27164 -0.8852,0.51248 -1.28318,0.65146 -0.5875,0.20216 -1.19711,0.31586 -1.8162,0.31586 -1.07392,0 -1.86911,-0.27953 -2.34922,-0.82914 -0.3664,-0.40429 -0.53301,-0.89862 -0.53301,-1.46085 -10e-6,-0.21478 0.0284,-0.43747 0.079,-0.6712 0.10739,-0.48011 0.30244,-0.92469 0.61198,-1.32268 0.30323,-0.39167 0.66173,-0.71384 1.06603,-0.94758 0.39168,-0.23373 0.82835,-0.39956 1.28319,-0.51327 -1e-5,0 1.40163,-0.2369 1.40163,-0.2369 1.08025,-0.12635 1.88648,-0.28348 2.46767,-0.45405 0.0126,-0.0632 0.0395,-0.13819 0.0395,-0.13819 0.0916,-0.40646 0.0801,-0.71198 -0.0197,-0.86862 -0.007,-0.0101 -0.0312,-0.0308 -0.0395,-0.0395 -0.0213,-0.0227 -0.0541,-0.0584 -0.079,-0.079 -0.2376,-0.18803 -0.64278,-0.27638 -1.18448,-0.27638 -0.61277,0 -1.06603,0.10029 -1.38189,0.29611 -0.30954,0.19584 -0.59619,0.55434 -0.84888,1.06604 0,-1e-5 -2.3887,0 -2.3887,0 1e-5,-1e-5 0.21716,-0.47379 0.21716,-0.47379 0.28426,-0.657 0.62303,-1.20185 1.04629,-1.61879 0.42325,-0.41695 0.99496,-0.73991 1.65827,-0.96732 0.50833,-0.16781 1.06341,-0.27916 1.65827,-0.31586 z m 10.00885,0 c 0.0891,-0.011 0.18655,0 0.27638,0 0.57486,0 1.11341,0.17293 1.61879,0.53301 0,0 0.29612,0.21715 0.29612,0.21715 0,0 -1.22396,2.01362 -1.22396,2.01362 0,-1e-5 -0.33561,-0.2369 -0.33561,-0.2369 -0.24637,-0.15792 -0.49827,-0.23689 -0.76991,-0.23689 -0.24006,0 -0.47695,0.0853 -0.71069,0.23689 -0.24005,0.15793 -0.41457,0.36719 -0.57249,0.65147 -0.25902,0.48643 -0.45959,1.03128 -0.59225,1.61879 0,0 -1.08577,4.85636 -1.08577,4.85636 1e-5,-10e-6 -2.28999,0 -2.28999,0 0,-10e-6 2.11232,-9.47583 2.11232,-9.47583 -1e-5,0 2.13206,0 2.13206,0 0,0 -0.0537,0.28743 -0.079,0.39482 0.10107,-0.0758 0.20136,-0.18004 0.29612,-0.2369 0.30105,-0.1826 0.60967,-0.2965 0.92784,-0.33559 z m 6.77127,0 c 0.13776,-0.0104 0.27362,0 0.41457,0 1.28872,0 2.27025,0.45167 2.90198,1.3424 0.4043,0.57487 0.61198,1.28556 0.61198,2.13207 -1e-5,0.46746 -0.0774,0.97048 -0.19742,1.52008 0,0 -0.15793,0.69095 -0.15793,0.69095 0,-1e-5 -5.79763,0 -6.43567,0 -0.0126,0.13265 -0.0395,0.27479 -0.0395,0.39482 0,0.49275 0.10739,0.88046 0.31586,1.16474 0.0325,0.0442 0.0826,0.0988 0.11845,0.13819 0.0207,0.0221 0.0571,0.0584 0.079,0.079 0.28243,0.25674 0.66677,0.39483 1.145,0.39483 0.46748,-1e-5 0.87809,-0.12872 1.26344,-0.37509 0.36641,-0.23373 0.7107,-0.60724 1.02655,-1.12525 0,-1e-5 2.46767,0 2.46767,0 0,-1e-5 -0.2369,0.47379 -0.2369,0.47379 -0.46748,0.94759 -1.12604,1.6867 -1.93465,2.21103 -0.82123,0.52433 -1.78224,0.80939 -2.86249,0.80939 -1.3961,0 -2.41555,-0.45168 -3.0599,-1.3424 -0.63805,-0.87179 -0.78887,-2.0768 -0.45406,-3.59293 0.34113,-1.5414 1.00208,-2.77326 1.99388,-3.6324 0.89458,-0.7708 1.91845,-1.19833 3.04016,-1.28318 z m -34.56706,0.17767 c 10e-6,0 2.34922,0 2.34922,0 1e-5,0 0.2898,5.62312 0.29612,5.70523 0.0948,-0.20136 0.16828,-0.37078 0.17768,-0.39482 0,1e-5 2.58611,-5.31041 2.58611,-5.31041 0,0 2.1518,0 2.1518,0 0,0 0.19741,5.5552 0.19741,5.58679 0.0632,-0.1137 2.94146,-5.58679 2.94146,-5.58679 -1e-5,0 2.32948,0 2.32948,0 0,0 -5.13275,9.47583 -5.13275,9.47583 10e-6,-10e-6 -2.11232,0 -2.11232,0 0,-10e-6 -0.20451,-5.13827 -0.21715,-5.42887 -0.87179,1.78778 -2.64534,5.42887 -2.64534,5.42887 0,-10e-6 -2.17154,0 -2.17154,0 0,-10e-6 -0.75018,-9.47583 -0.75018,-9.47583 z m -55.157254,1.79646 c -0.544185,0.023 -1.03839,0.21912 -1.500336,0.59223 -0.366396,0.2906 -0.613566,0.68938 -0.8094,1.12526 0,1e-5 3.889041,0 3.889041,0 0.0063,-0.0695 0.01974,-0.15398 0.01974,-0.21715 -8e-6,-0.36008 -0.06397,-0.63962 -0.177671,-0.82914 -0.277951,-0.45484 -0.690155,-0.6712 -1.302928,-0.6712 -0.03671,0 -0.08217,-0.002 -0.118448,0 z m 10.285226,0 c -0.544181,0.023 -1.03839,0.21912 -1.50034,0.59223 -0.366403,0.2906 -0.607237,0.68938 -0.809388,1.12526 0,1e-5 3.889037,0 3.889037,0 0.0063,-0.0695 0.01974,-0.15398 0.01974,-0.21715 -4e-6,-0.36008 -0.05764,-0.63962 -0.177675,-0.82914 -0.05518,-0.0924 -0.129821,-0.18426 -0.197412,-0.25663 -0.263767,-0.27256 -0.626787,-0.41457 -1.105512,-0.41457 -0.03672,0 -0.08217,-0.002 -0.118452,0 z m 79.557538,0 c -0.5596,0.0172 -1.08221,0.20669 -1.55956,0.59223 -0.36009,0.2906 -0.60725,0.68938 -0.8094,1.12526 1e-5,1e-5 3.8693,0 3.8693,0 0.006,-0.0695 0.0197,-0.15398 0.0197,-0.21715 0,-0.36008 -0.0576,-0.63962 -0.17767,-0.82914 -0.27164,-0.44853 -0.69016,-0.66488 -1.30293,-0.6712 -0.0182,1.9e-4 -0.0214,-5.6e-4 -0.0395,0 z m -51.722266,0.0395 c -0.522217,0.062 -1.007794,0.30026 -1.46086,0.71069 -0.543277,0.49275 -0.937317,1.2666 -1.164733,2.28999 -0.09476,0.42957 -0.138194,0.79676 -0.138194,1.12525 7e-6,0.44852 0.08607,0.80071 0.256638,1.06603 0.04541,0.0681 0.105642,0.14008 0.157932,0.19742 0.280827,0.29818 0.672981,0.45405 1.164738,0.45405 0.638034,-1e-5 1.200272,-0.23768 1.737233,-0.73043 0.543292,-0.49907 0.931,-1.28082 1.164737,-2.32947 0.214795,-0.96023 0.18478,-1.67723 -0.118445,-2.13207 -0.290591,-0.4422 -0.715424,-0.65146 -1.302924,-0.65146 -0.0997,0 -0.19942,-0.0115 -0.296122,0 z m 35.672576,3.45473 c -0.53696,0.14529 -1.13869,0.26769 -1.93465,0.37509 -0.59382,0.0884 -1.01708,0.18161 -1.26345,0.27637 -0.21478,0.0884 -0.38772,0.21084 -0.53302,0.37509 -0.13898,0.15792 -0.23215,0.32376 -0.27637,0.51327 -0.0126,0.0758 -0.0198,0.15398 -0.0198,0.21716 0,0.005 -1.1e-4,0.0147 0,0.0197 6.7e-4,0.015 -0.002,0.0447 0,0.0592 0.004,0.0287 0.0119,0.072 0.0198,0.0987 0.003,0.009 0.0165,0.0309 0.0197,0.0395 0.007,0.017 0.0112,0.043 0.0197,0.0592 0.009,0.016 0.0289,0.0439 0.0395,0.0592 0.0165,0.0227 0.0391,0.0576 0.0592,0.079 0.15793,0.17688 0.473,0.25664 0.92784,0.25664 0.49907,1e-5 0.97917,-0.0948 1.42137,-0.31586 0.4359,-0.21478 0.78729,-0.53539 1.04629,-0.9081 0.18953,-0.26533 0.34114,-0.67358 0.4738,-1.20422 z"
         id="path74"
         style="fill:#bd0000;fill-opacity:1;fill-rule:evenodd;stroke:none;stroke-width:1pt;stroke-linecap:butt;stroke-linejoin:miter" />
      <g
         id="g4966"
         transform="matrix(0.6317225,0,0,0.6317225,-61.305397,-143.76928)"
         style="fill:#bd0000;fill-opacity:1">
        <g
           transform="translate(125.1273,453.3934)"
           id="g84"
           style="fill:#bd0000;fill-opacity:1;fill-rule:evenodd;stroke:none;stroke-width:1pt;stroke-linecap:butt;stroke-linejoin:miter">
          <path
             inkscape:connector-curvature="0"
             d="m 0,36 c 0,0 7.46,0 7.46,0 0,0 3.35,-14 3.35,-14 0,0 12.12,0 12.12,0 0,0 1.56,-6 1.56,-6 0,0 -12.17,0 -12.17,0 0,0 2.02,-9 2.02,-9 0,0 12.95,0 12.95,0 0,0 1.56,-7 1.56,-7 C 28.85,0 8.4,0 8.4,0 8.4,0 0,36 0,36 Z"
             id="path86"
             style="fill:#bd0000;fill-opacity:1" />
        </g>
        <g
           transform="translate(151.0773,463.3934)"
           id="g88"
           style="fill:#bd0000;fill-opacity:1;fill-rule:evenodd;stroke:none;stroke-width:1pt;stroke-linecap:butt;stroke-linejoin:miter">
          <path
             inkscape:connector-curvature="0"
             d="m 7.51,26 c 0,0 2.24,-9.4 2.24,-9.4 1.18,-5.09 3.67,-9.6 8.38,-9.6 0.42,0 0.83,0.21 1.14,0.26 0,0 1.82,-7.21 1.82,-7.21 -0.42,0 -0.88,-0.05 -1.4,-0.05 -3.47,0 -6.38,2.44 -8.32,5.94 0,0 -0.2,0 -0.2,0 C 11.46,4.23 11.71,2.61 11.9,1 11.9,1 5.47,1 5.47,1 5.1,3.08 4.53,7.15 3.66,10.82 3.66,10.82 0,26 0,26 c 0,0 7.51,0 7.51,0 z"
             id="path90"
             style="fill:#bd0000;fill-opacity:1" />
        </g>
        <g
           transform="translate(171.7073,463.3934)"
           id="g92"
           style="fill:#bd0000;fill-opacity:1;fill-rule:evenodd;stroke:none;stroke-width:1pt;stroke-linecap:butt;stroke-linejoin:miter">
          <path
             inkscape:connector-curvature="0"
             d="M 20.06,19.25 C 17.99,20.26 15.63,20 12.88,20 10.71,20 9.03,19.62 8.11,18.88 7.63,18.07 7.43,16.81 7.47,16 17.6,16.27 23.99,13.93 24.31,7.53 24.55,2.7 21.02,0 15.89,0 6.73,0 0.73,8.08 0.34,15.86 0,22.65 3.52,26 10.78,26 c 2.79,0 6.49,-0.32 9.52,-1.23 0,0 -0.24,-5.52 -0.24,-5.52 z M 17.32,7.53 C 17.2,9.91 14.26,10.05 8.47,10 9.1,7.91 11.22,6 14.69,6 c 1.71,0 2.69,0.65 2.63,1.53 z"
             id="path94"
             style="fill:#bd0000;fill-opacity:1" />
        </g>
        <g
           transform="translate(198.2273,463.3934)"
           id="g96"
           style="fill:#bd0000;fill-opacity:1;fill-rule:evenodd;stroke:none;stroke-width:1pt;stroke-linecap:butt;stroke-linejoin:miter">
          <path
             inkscape:connector-curvature="0"
             d="M 20.05,19.25 C 17.98,20.26 15.62,20 12.88,20 10.7,20 9.03,19.62 8.11,18.88 7.63,18.07 7.42,16.81 7.46,16 17.6,16.27 23.98,13.93 24.31,7.53 24.55,2.7 21.02,0 15.89,0 6.72,0 0.72,8.08 0.33,15.86 0,22.65 3.52,26 10.77,26 c 2.8,0 6.5,-0.32 9.53,-1.23 0,0 -0.25,-5.52 -0.25,-5.52 z M 17.32,7.53 C 17.2,9.91 14.26,10.05 8.46,10 9.1,7.91 11.21,6 14.68,6 c 1.71,0 2.7,0.65 2.64,1.53 z"
             id="path98"
             style="fill:#bd0000;fill-opacity:1" />
        </g>
        <g
           transform="translate(234.1373,463.3934)"
           id="g100"
           style="fill:#bd0000;fill-opacity:1;fill-rule:evenodd;stroke:none;stroke-width:1pt;stroke-linecap:butt;stroke-linejoin:miter">
          <path
             inkscape:connector-curvature="0"
             d="M 22.74,26 C 22.8,22.83 23.56,17.85 24.35,14.58 24.35,14.58 27.56,1 27.56,1 25.52,0.31 22.34,0 19.28,0 6.86,0 0.7,9.2 0.27,17.82 0,23.23 2.93,26 7.49,26 c 2.95,0 6.28,-1.43 8.87,-5.73 0,0 0.11,0 0.11,0 -0.2,2.07 -0.44,4.08 -0.57,5.73 0,0 6.84,0 6.84,0 z M 17.61,11.72 C 16.15,18.08 13.17,20 10.95,20 8.88,20 7.98,18.53 8.1,16.39 8.34,11.56 12.16,6 16.98,6 c 0.78,0 1.39,-0.14 1.96,-0.28 0,0 -1.33,6 -1.33,6 z"
             id="path102"
             style="fill:#bd0000;fill-opacity:1" />
        </g>
        <g
           transform="translate(261.7673,463.3934)"
           id="g104"
           style="fill:#bd0000;fill-opacity:1;fill-rule:evenodd;stroke:none;stroke-width:1pt;stroke-linecap:butt;stroke-linejoin:miter">
          <path
             inkscape:connector-curvature="0"
             d="m 0,24.82 c 1.44,1.12 4.46,1.13 7.61,1.18 6.73,0.05 11.81,-2.89 12.11,-8.29 0.17,-3.6 -2.62,-5.73 -5.35,-7.16 C 12.4,9.6 11.41,8.69 11.46,7.63 11.53,6.2 12.87,6 14.84,6 c 2.22,0 4,0.27 5.02,0.47 0,0 2.02,-5.42 2.02,-5.42 C 20.73,0.36 18.43,0 15.48,0 8.95,0 4.17,3.45 3.9,8.69 c -0.16,3.24 2.17,5.42 4.99,6.9 2.28,1.17 3.06,2.07 3,3.34 C 11.82,20.21 10.68,20 8.61,20 6.18,20 3.49,19.68 2.07,19.46 2.07,19.46 0,24.82 0,24.82 Z"
             id="path106"
             style="fill:#bd0000;fill-opacity:1" />
        </g>
        <g
           transform="translate(294.2173,452.3934)"
           id="g108"
           style="fill:#bd0000;fill-opacity:1;fill-rule:evenodd;stroke:none;stroke-width:1pt;stroke-linecap:butt;stroke-linejoin:miter">
          <path
             inkscape:connector-curvature="0"
             d="m 7.45,37 c 0,0 6.05,-25 6.05,-25 0,0 -7.41,0 -7.41,0 0,0 -6.09,25 -6.09,25 0,0 7.45,0 7.45,0 z M 10.92,9 C 13.46,9 15.72,6.9 15.86,3.3 15.98,0.86 14.4,0 12.07,0 9.64,0 7.42,1.58 7.29,3.94 7.17,6.32 8.75,9 10.92,9 Z"
             id="path110"
             style="fill:#bd0000;fill-opacity:1" />
        </g>
        <g
           transform="translate(308.5073,464.0834)"
           id="g112"
           style="fill:#bd0000;fill-opacity:1;fill-rule:evenodd;stroke:none;stroke-width:1pt;stroke-linecap:butt;stroke-linejoin:miter">
          <path
             inkscape:connector-curvature="0"
             d="m 7.46,25.31 c 0,0 2.64,-11.26 2.64,-11.26 1.37,-5.73 4.32,-7.74 6.75,-7.74 1.92,0 2.48,0.82 2.39,2.01 -0.05,0.96 -0.2,1.97 -0.4,2.87 0,0 -3.36,14.12 -3.36,14.12 0,0 7.46,0 7.46,0 0,0 3.54,-14.81 3.54,-14.81 C 26.75,9.22 27.05,7.31 27.11,6.15 27.33,1.64 25.08,0 20.94,0 c -3.32,0 -6.55,1.54 -9.1,4.88 0,0 -0.1,0 -0.1,0 0,0 0.68,-4.57 0.68,-4.57 0,0 -6.58,0 -6.58,0 C 5.41,2.45 4.86,5.04 4.08,8.06 4.08,8.06 0,25.31 0,25.31 c 0,0 7.46,0 7.46,0 z"
             id="path114"
             style="fill:#bd0000;fill-opacity:1" />
        </g>
        <g
           transform="translate(348.0673,453.3934)"
           id="g116"
           style="fill:#bd0000;fill-opacity:1;fill-rule:evenodd;stroke:none;stroke-width:1pt;stroke-linecap:butt;stroke-linejoin:miter">
          <path
             inkscape:connector-curvature="0"
             d="m 0,36 c 0,0 7.46,0 7.46,0 0,0 3.36,-14 3.36,-14 0,0 12.11,0 12.11,0 0,0 1.56,-6 1.56,-6 0,0 -12.17,0 -12.17,0 0,0 2.02,-9 2.02,-9 0,0 12.95,0 12.95,0 0,0 1.56,-7 1.56,-7 C 28.85,0 8.4,0 8.4,0 8.4,0 0,36 0,36 Z"
             id="path118"
             style="fill:#bd0000;fill-opacity:1" />
        </g>
        <g
           transform="translate(374.0173,463.3934)"
           id="g120"
           style="fill:#bd0000;fill-opacity:1;fill-rule:evenodd;stroke:none;stroke-width:1pt;stroke-linecap:butt;stroke-linejoin:miter">
          <path
             inkscape:connector-curvature="0"
             d="m 7.51,26 c 0,0 2.24,-9.4 2.24,-9.4 1.18,-5.09 3.67,-9.6 8.38,-9.6 0.42,0 0.83,0.21 1.14,0.26 0,0 1.82,-7.21 1.82,-7.21 -0.42,0 -0.88,-0.05 -1.4,-0.05 -3.47,0 -6.38,2.44 -8.32,5.94 0,0 -0.2,0 -0.2,0 C 11.46,4.23 11.71,2.61 11.9,1 11.9,1 5.47,1 5.47,1 5.11,3.08 4.53,7.15 3.66,10.82 3.66,10.82 0,26 0,26 c 0,0 7.51,0 7.51,0 z"
             id="path122"
             style="fill:#bd0000;fill-opacity:1" />
        </g>
        <g
           transform="translate(394.6473,463.3934)"
           id="g124"
           style="fill:#bd0000;fill-opacity:1;fill-rule:evenodd;stroke:none;stroke-width:1pt;stroke-linecap:butt;stroke-linejoin:miter">
          <path
             inkscape:connector-curvature="0"
             d="M 20.06,19.25 C 17.99,20.26 15.63,20 12.88,20 10.71,20 9.03,19.62 8.11,18.88 7.63,18.07 7.43,16.81 7.47,16 17.6,16.27 23.99,13.93 24.31,7.53 24.55,2.7 21.02,0 15.89,0 6.73,0 0.73,8.08 0.34,15.86 0,22.65 3.53,26 10.78,26 c 2.79,0 6.5,-0.32 9.52,-1.23 0,0 -0.24,-5.52 -0.24,-5.52 z M 17.32,7.53 C 17.2,9.91 14.26,10.05 8.47,10 9.1,7.91 11.22,6 14.69,6 c 1.71,0 2.69,0.65 2.63,1.53 z"
             id="path126"
             style="fill:#bd0000;fill-opacity:1" />
        </g>
        <g
           transform="translate(421.1673,463.3934)"
           id="g128"
           style="fill:#bd0000;fill-opacity:1;fill-rule:evenodd;stroke:none;stroke-width:1pt;stroke-linecap:butt;stroke-linejoin:miter">
          <path
             inkscape:connector-curvature="0"
             d="M 20.05,19.25 C 17.98,20.26 15.62,20 12.88,20 10.7,20 9.03,19.62 8.11,18.88 7.63,18.07 7.42,16.81 7.46,16 17.6,16.27 23.98,13.93 24.31,7.53 24.55,2.7 21.02,0 15.89,0 6.72,0 0.72,8.08 0.33,15.86 0,22.65 3.52,26 10.77,26 c 2.8,0 6.5,-0.32 9.53,-1.23 0,0 -0.25,-5.52 -0.25,-5.52 z M 17.32,7.53 C 17.2,9.91 14.26,10.05 8.46,10 9.1,7.91 11.21,6 14.68,6 c 1.71,0 2.7,0.65 2.64,1.53 z"
             id="path130"
             style="fill:#bd0000;fill-opacity:1" />
        </g>
        <g
           transform="translate(447.5473,452.3934)"
           id="g132"
           style="fill:#bd0000;fill-opacity:1;fill-rule:evenodd;stroke:none;stroke-width:1pt;stroke-linecap:butt;stroke-linejoin:miter">
          <path
             inkscape:connector-curvature="0"
             d="M 23.31,0 C 23.31,0 20.5,11.36 20.5,11.36 19.48,10.94 18.15,11 17.11,11 7.53,11 0.75,19.2 0.3,28.08 0,34.34 3.34,37 7.64,37 c 3.01,0 6.18,-1.33 8.58,-4.77 0,0 0.1,0 0.1,0 0,0 -0.57,4.77 -0.57,4.77 0,0 6.78,0 6.78,0 0.31,-3 0.96,-6.57 1.69,-9.83 0,0 6.49,-27.17 6.49,-27.17 0,0 -7.4,0 -7.4,0 z M 17.47,24.42 C 16.3,29.35 13.54,31 11.36,31 9.19,31 7.98,29.49 8.13,26.8 8.38,21.82 11.8,17 16.25,17 c 1.25,0 2.32,0.19 2.91,0.47 0,0 -1.69,6.95 -1.69,6.95 z"
             id="path134"
             style="fill:#bd0000;fill-opacity:1" />
        </g>
        <g
           transform="translate(477.2573,463.3934)"
           id="g136"
           style="fill:#bd0000;fill-opacity:1;fill-rule:evenodd;stroke:none;stroke-width:1pt;stroke-linecap:butt;stroke-linejoin:miter">
          <path
             inkscape:connector-curvature="0"
             d="M 10.61,26 C 19.31,26 26.02,19.41 26.49,10.44 26.78,4.5 23.08,0 16.25,0 7.23,0 0.76,7.3 0.31,16.12 0,22.54 4.14,26 10.61,26 Z m 1.17,-6 C 9.24,20 7.84,18.38 7.99,15.96 8.19,11.93 10.68,6 14.97,6 c 2.96,0 3.87,2.27 3.75,4.5 -0.22,4.4 -2.9,9.5 -6.94,9.5 z"
             id="path138"
             style="fill:#bd0000;fill-opacity:1" />
        </g>
        <g
           transform="translate(505.8173,463.3934)"
           id="g140"
           style="fill:#bd0000;fill-opacity:1;fill-rule:evenodd;stroke:none;stroke-width:1pt;stroke-linecap:butt;stroke-linejoin:miter">
          <path
             inkscape:connector-curvature="0"
             d="M 7.2,26 C 7.2,26 9.9,14.58 9.9,14.58 11.03,9.49 13.85,6 16.38,6 c 1.82,0 2.32,1.33 2.23,3.07 -0.05,0.9 -0.25,1.91 -0.46,2.91 0,0 -3.34,14.02 -3.34,14.02 0,0 7.2,0 7.2,0 0,0 2.7,-11.47 2.7,-11.47 C 25.95,9.28 28.61,6 31.09,6 c 1.71,0 2.42,1.22 2.34,2.96 -0.05,1.01 -0.26,2.12 -0.52,3.13 0,0 -3.24,13.91 -3.24,13.91 0,0 7.25,0 7.25,0 0,0 3.49,-14.81 3.49,-14.81 0.27,-1.33 0.58,-3.4 0.63,-4.46 C 41.26,2.33 39.11,0 35.23,0 31.91,0 28.68,1.5 26.23,4.66 26.14,2.38 24.51,0 20.47,0 17.2,0 14.08,1.48 11.58,4.83 c 0,0 -0.1,0 -0.1,0 0,0 0.67,-3.83 0.67,-3.83 0,0 -6.42,0 -6.42,0 C 5.31,3.14 4.8,5.73 4.02,8.75 4.02,8.75 0,26 0,26 c 0,0 7.2,0 7.2,0 z"
             id="path142"
             style="fill:#bd0000;fill-opacity:1" />
        </g>
      </g>
    </g>
    <g
       transform="matrix(1.5400964,0,0,1.5400964,-86.343198,-467.07702)"
       id="aadhaar"
       inkscape:export-xdpi="108"
       inkscape:export-ydpi="108"
       inkscape:label="">
      <g
         id="g12">
        <path
           style="fill:#fab60f;stroke:none"
           d="m 438.218,397.427 -0.003,0.002 0.004,0 c -1.785,2.698 -2.433,5.946 -2.977,9.332 -0.667,4.123 -1.37,8.081 -2.828,11.961 -1.752,4.651 -4.694,9.833 -9.815,13.889 -5.322,-14.41 -13.069,-27.642 -22.74,-39.214 6.102,-2.439 12.091,-2.401 17.015,-1.589 4.09,0.677 7.869,2.047 11.775,3.531 3.202,1.223 6.34,2.286 9.569,2.088 z"
           id="path14"
           inkscape:connector-curvature="0" />
        <path
           style="fill:#fab60f;stroke:none"
           d="m 378.801,338.011 -0.002,0.003 0.004,-0.001 c -0.198,3.228 0.865,6.365 2.087,9.569 1.484,3.905 2.854,7.684 3.532,11.774 0.812,4.928 0.849,10.924 -1.596,17.031 -11.589,-9.657 -24.839,-17.386 -39.261,-22.688 4.065,-5.163 9.27,-8.124 13.942,-9.883 3.88,-1.458 7.838,-2.161 11.963,-2.829 3.384,-0.543 6.633,-1.19 9.331,-2.976 z"
           id="path16"
           inkscape:connector-curvature="0" />
        <path
           style="fill:#fab60f;stroke:none"
           d="m 428.856,455.936 c 6.458,0.955 11.597,3.967 15.437,7.117 3.202,2.632 5.79,5.708 8.431,8.947 2.161,2.658 4.347,5.148 7.241,6.591 l -29.157,0 c -0.009,-7.724 -0.681,-15.291 -1.952,-22.655 z"
           id="path18"
           inkscape:connector-curvature="0" />
        <path
           style="fill:#fab60f;stroke:none"
           d="m 216.471,338.013 0.002,0.002 0,-0.003 c 2.698,1.785 5.947,2.432 9.332,2.977 4.123,0.667 8.081,1.37 11.961,2.827 4.672,1.759 9.878,4.721 13.942,9.884 -14.424,5.301 -27.672,13.031 -39.261,22.688 -2.445,-6.107 -2.409,-12.103 -1.595,-17.032 0.677,-4.089 2.047,-7.869 3.531,-11.775 1.222,-3.202 2.286,-6.34 2.088,-9.568 z"
           id="path20"
           inkscape:connector-curvature="0" />
        <path
           style="fill:#fab60f;stroke:none"
           d="m 157.055,397.43 0.003,10e-4 -0.001,-0.003 c 3.228,0.197 6.366,-0.866 9.569,-2.088 3.905,-1.484 7.684,-2.854 11.773,-3.532 4.925,-0.811 10.914,-0.848 17.015,1.59 -9.671,11.572 -17.415,24.805 -22.739,39.214 -5.121,-4.057 -8.063,-9.237 -9.815,-13.889 -1.458,-3.88 -2.161,-7.838 -2.828,-11.962 -0.544,-3.385 -1.192,-6.634 -2.977,-9.331 z"
           id="path22"
           inkscape:connector-curvature="0" />
        <path
           style="fill:#fab60f;stroke:none"
           d="m 135.31,478.591 c 2.894,-1.443 5.078,-3.932 7.242,-6.591 2.639,-3.238 5.227,-6.314 8.429,-8.945 3.841,-3.151 8.976,-6.164 15.436,-7.118 -1.271,7.363 -1.942,14.93 -1.95,22.654 l -29.157,0 z"
           id="path24"
           inkscape:connector-curvature="0" />
        <path
           style="fill:#fab60f;stroke:none"
           d="m 297.636,316.264 0,0.003 0.002,-0.003 c 1.443,2.895 3.933,5.08 6.592,7.244 3.238,2.639 6.315,5.227 8.946,8.429 3.17,3.865 6.202,9.041 7.136,15.558 -7.371,-1.265 -14.944,-1.931 -22.675,-1.931 -7.731,0 -15.305,0.666 -22.676,1.931 0.934,-6.516 3.966,-11.693 7.136,-15.557 2.632,-3.203 5.708,-5.791 8.946,-8.431 2.659,-2.162 5.149,-4.348 6.593,-7.243 z"
           id="path26"
           inkscape:connector-curvature="0" />
      </g>
      <g
         id="g28">
        <path
           style="fill:#d52736;stroke:none"
           d="m 270.555,478.621 10.02,-0.029 c 1.316,-8.463 -1.258,-14.979 -9.819,-13.424 -7.214,1.31 -14.963,8.477 -19.646,13.424 l 13.211,-0.058 c 1.472,-0.968 4.353,-2.072 5.536,-1.25 0.443,0.308 0.674,0.745 0.698,1.337 z"
           id="path30"
           inkscape:connector-curvature="0" />
        <path
           style="fill:#d52736;stroke:none"
           d="m 315.615,478.593 12.5,0 c 0.595,-14.762 -1.783,-30.006 -8.646,-43.195 -6.242,-12 -16.56,-20.157 -29.918,-22.128 -19.5,-2.877 -39.176,5.378 -55.811,17.188 -18.112,12.859 -33.062,30.323 -46.127,48.135 l 16.513,-0.024 c 14.866,-21.071 49.059,-53.06 74.212,-53.269 8.016,-0.066 16.166,1.815 22.192,7.191 4.366,3.896 9.659,11.461 9.4,17.601 -0.154,3.641 -3.385,4.757 -6.483,3.629 -2.407,-0.876 -4.107,-3.076 -5.791,-5.389 -5.473,-7.514 -14.01,-11.191 -23.374,-9.91 -11.168,1.527 -25.012,10.199 -33.941,18.086 -7.7,6.802 -14.769,14.246 -21.437,22.085 l 17.754,0 c 6.507,-7.856 13.378,-14.555 22.211,-20.057 2.795,-1.741 6.237,-3.582 9.855,-4.826 9.127,-3.137 18.21,-2.343 22.243,9.021 1.585,4.468 1.818,8.387 1.356,15.569 l -10e-4,0.293 12.072,0 0.031,-0.369 c 0.009,-3.933 -0.077,-6.583 0.278,-10.481 0.305,-3.359 1.349,-6.84 4.469,-7.254 6.631,-1.389 6.313,13.363 6.443,18.104 z"
           id="path32"
           inkscape:connector-curvature="0" />
        <path
           style="fill:#d52736;stroke:none"
           d="m 341.259,478.593 12.604,0 c 0.61,-13.696 -0.564,-29.922 -4.995,-44.09 -0.875,-2.795 -1.874,-5.508 -3.009,-8.098 -2.683,-6.123 -6.293,-11.665 -10.597,-16.787 -4.784,-5.69 -10.484,-10.806 -16.91,-14.836 -1.896,-1.189 -3.862,-2.287 -5.892,-3.279 l 0,-0.002 c -2.015,-0.985 -4.098,-1.866 -6.242,-2.627 l -0.008,-0.003 c -24.545,-8.715 -49.37,-2.517 -70.194,8.809 -4.06,2.209 -7.967,4.611 -11.687,7.134 -3.719,2.521 -7.26,5.17 -10.59,7.871 l -0.001,0 0,0 -0.006,0.006 c -3.953,3.206 -8.899,7.593 -13.794,12.778 -0.964,1.021 -1.916,2.061 -2.842,3.112 -2.477,2.808 -6.294,6.745 -5.161,10.815 0.897,3.228 5.062,2.277 6.513,1.165 2.227,-1.195 4.673,-3.089 6.766,-4.86 2.834,-2.399 5.511,-4.982 8.317,-7.414 11.35,-9.839 23.18,-17.427 34.833,-22.562 2.54,-1.119 5.083,-2.126 7.617,-3.016 2.525,-0.887 5.037,-1.655 7.527,-2.302 l 0.012,-0.003 c 21.683,-5.63 45.245,-1.983 60.331,15.7 14.533,17.032 17.186,39.832 17.408,62.489 z M 184.871,459.338 c 1.354,-1.264 2.734,-2.913 4.172,-4.739 2.012,-2.552 2.214,-5.023 1.419,-6.807 -0.296,-0.666 -0.733,-1.239 -1.264,-1.683 -0.527,-0.44 -1.149,-0.754 -1.82,-0.908 -1.64,-0.375 -3.601,0.212 -5.266,2.238 -1.883,2.29 -4.483,6.208 -5.014,9.673 -0.099,0.649 -0.126,1.28 -0.059,1.872 0.065,0.576 0.219,1.124 0.478,1.624 l 0.002,0.005 0.001,-10e-4 c 0.424,0.814 1.139,1.243 2.093,1.279 0.199,0.007 0.414,-0.002 0.643,-0.027 0.223,-0.025 0.465,-0.069 0.722,-0.129 l 0.001,0.002 0.012,-0.003 c 1.284,-0.308 2.568,-1.172 3.88,-2.396 z"
           id="path34"
           inkscape:connector-curvature="0" />
        <path
           style="fill:#d52736;stroke:none"
           d="m 372.787,478.597 0.09,-0.002 0.045,0 c 1.319,0.072 3.608,-0.535 4.928,-2.762 0.263,-0.445 0.489,-0.954 0.66,-1.532 0.175,-0.588 0.296,-1.255 0.347,-2.004 l 10e-4,0 0.009,-0.154 0,0 c 1.002,-35.006 -9.72,-63.985 -27.923,-83.673 -3.535,-3.823 -7.358,-7.301 -11.436,-10.406 -4.075,-3.103 -8.399,-5.83 -12.938,-8.156 l -10e-4,10e-4 -0.072,-0.036 -0.002,-0.002 c -15.3,-7.819 -32.652,-10.822 -49.684,-9.379 -3.323,0.281 -6.625,0.73 -9.888,1.343 -3.271,0.615 -6.515,1.396 -9.711,2.339 l -0.045,0.014 c -17.516,5.181 -33.816,15.466 -47.099,28.961 -2.587,2.629 -5.059,5.376 -7.397,8.227 -1.163,1.416 -2.295,2.86 -3.392,4.326 9.315,-8.037 19.309,-15.087 29.762,-20.688 2.354,-1.261 4.722,-2.446 7.097,-3.544 2.378,-1.101 4.786,-2.128 7.219,-3.074 l 0.007,-0.003 0.007,-0.003 c 9.235,-3.589 18.339,-5.878 27.445,-6.901 9.106,-1.023 18.218,-0.78 27.471,0.691 6.585,1.048 13.013,2.772 18.803,5.184 1.123,0.468 2.229,0.965 3.311,1.49 1.068,0.518 2.12,1.068 3.15,1.65 l 0.002,0 0.016,0.008 -0.001,10e-4 c 20.386,11.163 34.549,34.069 40.787,59.931 1.216,5.044 2.132,10.196 2.733,15.386 0.601,5.188 0.889,10.434 0.853,15.669 l 0,0.002 -0.003,0.301 c 0.104,2.801 1.064,5.144 2.709,6.199 0.306,0.196 0.638,0.349 0.991,0.448 l 0.002,0 c 0.36,0.103 0.743,0.154 1.147,0.148 z"
           id="path36"
           inkscape:connector-curvature="0" />
        <path
           style="fill:#fab60f;stroke:none"
           d="m 336.337,361.93 c 49.014,16.189 84.436,62.281 84.642,116.664 l -24.252,0 c 1.605,-47.505 -19.128,-90.385 -60.39,-116.664 z"
           id="path38"
           inkscape:connector-curvature="0" />
      </g>
      <path
         style="fill:#d52736;stroke:none"
         d="m 194.025,516.738 -9.81,0 -2.429,8.547 -7.819,0 10.345,-32.733 9.907,0 10.636,32.733 -8.159,0 -2.671,-8.547 z m -8.693,-5.537 7.527,0 c -1.974,-6.395 -3.253,-10.782 -3.836,-13.162 l -0.098,0 -1.554,6.217 -2.039,6.945 z m 44.727,5.537 -9.811,0 -2.428,8.547 -7.819,0 10.344,-32.733 9.908,0 10.636,32.733 -8.159,0 -2.671,-8.547 z m -8.694,-5.537 7.528,0 c -1.975,-6.395 -3.254,-10.782 -3.837,-13.162 l -0.097,0 -1.554,6.217 -2.04,6.945 z m 27,13.939 0,-32.151 c 3.238,-0.486 6.702,-0.729 10.393,-0.729 6.978,0 11.988,1.457 15.024,4.379 3.035,2.922 4.549,6.743 4.549,11.454 0,5.569 -1.724,9.883 -5.181,12.943 -3.456,3.059 -8.79,4.589 -15.994,4.589 -3.335,0 -6.265,-0.162 -8.791,-0.485 z m 7.528,-26.809 0,21.321 c 0.421,0.097 1.328,0.145 2.72,0.145 3.739,0 6.637,-0.987 8.685,-2.954 2.048,-1.967 3.068,-4.784 3.068,-8.459 0,-3.367 -0.931,-5.933 -2.801,-7.698 -1.87,-1.764 -4.565,-2.647 -8.078,-2.647 -1.473,0 -2.671,0.098 -3.594,0.292 z m 30.497,-5.779 7.528,0 0,12.578 12.87,0 0,-12.578 7.528,0 0,32.733 -7.528,0 0,-13.647 -12.87,0 0,13.647 -7.528,0 0,-32.733 z m 55.217,24.186 -9.81,0 -2.428,8.547 -7.82,0 10.345,-32.733 9.908,0 10.636,32.733 -8.159,0 -2.672,-8.547 z m -8.693,-5.537 7.528,0 c -1.975,-6.395 -3.254,-10.782 -3.837,-13.162 l -0.097,0 -1.554,6.217 -2.04,6.945 z m 44.727,5.537 -9.811,0 -2.428,8.547 -7.819,0 10.344,-32.733 9.908,0 10.636,32.733 -8.159,0 -2.671,-8.547 z m -8.694,-5.537 7.528,0 c -1.975,-6.395 -3.254,-10.782 -3.837,-13.162 l -0.097,0 -1.554,6.217 -2.04,6.945 z m 27,14.084 0,-32.296 c 2.753,-0.486 6.136,-0.729 10.151,-0.729 4.954,0 8.515,0.818 10.684,2.453 2.17,1.635 3.254,3.974 3.254,7.018 0,1.813 -0.542,3.448 -1.635,4.913 -1.092,1.465 -2.509,2.501 -4.241,3.1 l 0,0.194 c 2.04,0.761 3.513,2.769 4.419,6.022 1.668,5.861 2.574,8.969 2.72,9.325 l -7.673,0 c -0.648,-1.214 -1.425,-3.755 -2.332,-7.625 -0.453,-1.942 -1.068,-3.302 -1.845,-4.079 -0.777,-0.777 -2.024,-1.166 -3.74,-1.166 l -2.331,0 0,12.87 -7.431,0 z m 7.431,-27.246 0,8.985 3.108,0 c 1.878,0 3.359,-0.429 4.444,-1.279 1.085,-0.849 1.627,-1.991 1.627,-3.432 0,-1.441 -0.485,-2.558 -1.465,-3.343 -0.979,-0.785 -2.372,-1.173 -4.168,-1.173 -1.765,0 -2.947,0.081 -3.546,0.242 z"
         id="path40"
         inkscape:connector-curvature="0" />
    </g>
  </g>
</svg>
