<svg xmlns="http://www.w3.org/2000/svg" width="210mm" height="297mm" viewBox="0 0 744.09448819 1052.3622047"><path fill="#bd0000" fill-rule="evenodd" d="M410.455 951h-.01c-.925 0-1.742.306-2.51.927-.57.452-.964 1.063-1.28 1.742h.04c.315-.68.71-1.29 1.27-1.743.768-.62 1.585-.916 2.49-.926z"/><path fill="#bd0000" fill-rule="evenodd" d="M410.484 951h-.03c.956.012 1.586.336 2.01 1.035.186.295.285.738.285 1.3 0 .098-.02.226-.03.334h.038c0-.11.02-.237.02-.336 0-.56-.088-1.004-.276-1.3-.423-.708-1.063-1.033-2.018-1.033z"/><g fill="#008033" fill-rule="evenodd" stroke-width="1pt"><path d="M146.96 1032.362h7.344l3.298-13.783h11.932l1.536-5.908h-11.98l1.987-8.86h12.75l1.536-6.893H155.23l-8.27 35.442zM179.9 1032.362l2.206-9.255c1.162-5.01 3.614-9.45 8.25-9.45.414 0 .818.206 1.123.255l1.79-7.098c-.413 0-.866-.05-1.378-.05-3.416 0-6.28 2.403-8.19 5.848h-.198c.286-1.683.532-3.278.72-4.863h-6.33c-.365 2.047-.927 6.054-1.783 9.667l-3.602 14.945h7.393zM212.567 1025.716c-2.038.995-4.36.74-7.07.74-2.135 0-3.79-.376-4.695-1.104-.472-.798-.67-2.038-.63-2.835 9.973.265 16.264-2.038 16.58-8.34.235-4.754-3.24-7.413-8.29-7.413-9.018 0-14.925 7.955-15.31 15.615-.334 6.683 3.13 9.982 10.28 9.982 2.746 0 6.388-.315 9.37-1.21l-.235-5.436zm-2.697-11.538c-.12 2.343-3.013 2.48-8.713 2.432.62-2.058 2.707-3.938 6.123-3.938 1.684 0 2.65.64 2.59 1.506zM238.666 1025.716c-2.038.995-4.36.74-7.06.74-2.145 0-3.79-.376-4.695-1.104-.47-.798-.678-2.038-.64-2.835 9.984.265 16.265-2.038 16.59-8.34.237-4.754-3.24-7.413-8.29-7.413-9.027 0-14.934 7.955-15.318 15.615-.325 6.683 3.14 9.982 10.278 9.982 2.757 0 6.4-.315 9.382-1.21l-.246-5.436zm-2.687-11.538c-.12 2.343-3.014 2.48-8.724 2.432.63-2.058 2.707-3.938 6.123-3.938 1.683 0 2.658.64 2.6 1.506zM276.668 1032.362c.06-3.12.807-8.024 1.585-11.243l3.16-13.37c-2.008-.68-5.14-.986-8.15-.986-12.23 0-18.293 9.058-18.717 17.544-.266 5.327 2.62 8.054 7.108 8.054 2.905 0 6.183-1.408 8.733-5.642h.108c-.197 2.038-.433 4.017-.56 5.642h6.733zm-5.05-14.06c-1.438 6.262-4.372 8.153-6.557 8.153-2.037 0-2.923-1.448-2.805-3.554.236-4.755 3.997-10.228 8.742-10.228.768 0 1.37-.138 1.93-.276l-1.31 5.907zM281.482 1031.2c1.418 1.103 4.39 1.112 7.492 1.162 6.626.05 11.627-2.846 11.923-8.162.167-3.544-2.58-5.64-5.267-7.05-1.94-.934-2.915-1.83-2.865-2.874.07-1.408 1.388-1.604 3.327-1.604 2.186 0 3.938.265 4.943.462l1.988-5.336c-1.132-.68-3.396-1.034-6.3-1.034-6.43 0-11.135 3.397-11.4 8.556-.16 3.19 2.135 5.336 4.912 6.793 2.244 1.152 3.012 2.038 2.953 3.288-.07 1.26-1.19 1.055-3.23 1.055-2.39 0-5.04-.315-6.438-.532l-2.038 5.277zM320.764 1032.362l5.956-24.613h-7.295l-5.996 24.612h7.334zm3.416-27.566c2.5 0 4.726-2.068 4.864-5.612.118-2.402-1.438-3.25-3.732-3.25-2.392 0-4.578 1.556-4.706 3.88-.118 2.343 1.438 4.982 3.574 4.982zM334.842 1032.362l2.6-11.086c1.348-5.64 4.253-7.62 6.645-7.62 1.89 0 2.44.807 2.353 1.98-.05.944-.197 1.938-.394 2.824l-3.308 13.902h7.344l3.486-14.58c.265-1.26.56-3.14.62-4.284.216-4.44-2-6.054-6.075-6.054-3.268 0-6.448 1.516-8.96 4.804h-.097l.67-4.5h-6.48c-.422 2.108-.963 4.658-1.73 7.63l-4.018 16.984h7.344zM366.445 1032.362h7.344l3.307-13.783h11.923l1.535-5.908h-11.98l1.988-8.86h12.75l1.535-6.893h-20.133l-8.27 35.442zM399.386 1032.362l2.206-9.255c1.16-5.01 3.613-9.45 8.25-9.45.413 0 .817.206 1.122.255l1.792-7.098c-.413 0-.866-.05-1.378-.05-3.417 0-6.28 2.403-8.19 5.848h-.198c.285-1.683.53-3.278.718-4.863h-6.33c-.354 2.047-.925 6.054-1.782 9.667l-3.603 14.945h7.393zM432.052 1025.716c-2.038.995-4.36.74-7.068.74-2.137 0-3.79-.376-4.697-1.104-.472-.798-.67-2.038-.63-2.835 9.973.265 16.264-2.038 16.58-8.34.236-4.754-3.24-7.413-8.29-7.413-9.018 0-14.925 7.955-15.31 15.615-.334 6.683 3.14 9.982 10.28 9.982 2.746 0 6.398-.315 9.372-1.21l-.238-5.436zm-2.697-11.538c-.118 2.343-3.013 2.48-8.713 2.432.62-2.058 2.707-3.938 6.124-3.938 1.683 0 2.648.64 2.59 1.506zM458.15 1025.716c-2.036.995-4.36.74-7.057.74-2.147 0-3.79-.376-4.697-1.104-.472-.798-.68-2.038-.64-2.835 9.983.265 16.265-2.038 16.59-8.34.236-4.754-3.24-7.413-8.29-7.413-9.028 0-14.935 7.955-15.32 15.615-.324 6.683 3.142 9.982 10.28 9.982 2.756 0 6.4-.315 9.382-1.21l-.247-5.436zm-2.686-11.538c-.118 2.343-3.013 2.48-8.723 2.432.63-2.058 2.708-3.938 6.125-3.938 1.683 0 2.658.64 2.6 1.506zM487.332 995.935l-2.766 11.184c-1.004-.415-2.314-.355-3.338-.355-9.43 0-16.106 8.072-16.55 16.815-.295 6.163 2.994 8.782 7.227 8.782 2.963 0 6.084-1.31 8.447-4.696h.098l-.56 4.696h6.674c.305-2.954.945-6.47 1.664-9.678l6.39-26.75h-7.286zm-5.75 24.042c-1.15 4.853-3.868 6.478-6.015 6.478-2.136 0-3.327-1.487-3.18-4.135.247-4.903 3.614-9.648 7.995-9.648 1.23 0 2.284.187 2.864.462l-1.663 6.843zM504.08 1032.362c8.564 0 15.17-6.488 15.632-15.32.286-5.847-3.357-10.278-10.08-10.278-8.88 0-15.25 7.187-15.694 15.87-.305 6.32 3.77 9.728 10.14 9.728zm1.15-5.907c-2.5 0-3.88-1.595-3.73-3.978.196-3.967 2.647-9.805 6.87-9.805 2.915 0 3.81 2.234 3.693 4.43-.217 4.332-2.855 9.353-6.833 9.353zM528.84 1032.362l2.657-11.243c1.112-5.013 3.89-8.448 6.38-8.448 1.79 0 2.284 1.31 2.195 3.022-.05.886-.246 1.88-.453 2.865l-3.29 13.802h7.09l2.658-11.293c1.22-5.17 3.84-8.398 6.28-8.398 1.684 0 2.383 1.2 2.304 2.914-.05.994-.256 2.087-.512 3.08l-3.19 13.696h7.138l3.436-14.58c.266-1.31.57-3.348.62-4.392.217-4.332-1.9-6.626-5.72-6.626-3.268 0-6.448 1.477-8.86 4.588-.09-2.244-1.693-4.588-5.67-4.588-3.22 0-6.292 1.458-8.753 4.756h-.097l.66-3.77h-6.32c-.415 2.106-.917 4.656-1.685 7.63l-3.958 16.982h7.09z"/></g><path fill="none" stroke="#007f32" stroke-width="4.922716" d="M435.585 966.306c.4 1.027.8 2.053 1.216 3.056.642 1.363 1.383 2.668 2.274 3.886 4.812 6.542 12.872 10.124 23.105 11.015h11.006c3.48-.27 7.127-.777 10.907-1.516 6.52-1.275 13.43-3.233 20.607-5.85 5.437-1.983 11.024-4.328 16.694-7.054 12.348-5.92 25.103-13.554 37.618-22.766 4.12-3.032 8.076-6.143 11.873-9.306 3.48-2.895 6.82-5.835 10.008-8.81 8.9-8.576 15.62-17.288 19.424-24.937 3.964-7.966 4.755-14.776 1.508-19.067-1.99-2.633-5.32-4.045-9.61-4.377 19.318-14.495 30.575-32.077 26.537-43.163-1.283-3.537-4.105-6.177-8.152-7.636-1.798-.646-3.82-1.056-6.028-1.243h-5.945c-8.3.6-20.372 3.572-30.613 8.59"/><path fill="#008033" fill-rule="evenodd" d="M155.135 832.39l-33.088 149.397H426.68c-9.816-.857-17.565-4.302-22.182-10.583-.857-1.162-1.564-2.414-2.185-3.723-.393-.964-.764-1.937-1.138-2.922-.985-3.13-1.377-6.605-1.2-10.306.492-10.318 5.334-22.59 13.722-35.443 8.91-13.658 21.822-27.973 37.81-41.257 3.584-2.975 7.29-5.913 11.17-8.77 4.793-3.526 9.625-6.775 14.46-9.813 17.808-11.212 35.574-19.058 51.316-23.043-15.043 4.907-31.944 13.24-48.64 24.58-.6.407-1.194.822-1.785 1.232-9.264 6.418-17.657 13.235-24.982 20.12-23.57 22.16-36.027 45.125-30.366 58.578.404.925.885 1.81 1.446 2.646 6.084 8.95 21.163 10.496 40.273 5.69 1.298-.324 2.598-.692 3.937-1.076 6.104-1.762 12.584-4.142 19.26-7.076 1.604-.708 3.226-1.437 4.86-2.215.167-.078.325-.157.492-.246 21.068-10.467 37.26-22.512 40.764-29.75.768-1.574.952-2.916.43-3.968-2.5-5.07-19.998-1.645-41.195 7.537-1.704.738-3.427 1.498-5.17 2.307 1.418-1.316 2.894-2.638 4.4-3.938 2.402-2.07 4.89-4.094 7.538-6.093 4.145-3.138 8.335-5.976 12.46-8.49 19.316-14.574 29.08-28.36 27.043-33.474-.383-.964-1.2-1.627-2.46-2.03-4.027-1.282-11.376.247-20.306 3.907-7.364 3.02-15.822 7.5-24.397 13.075l-1.17.77-.214.122-4.123 2.738 2.37-4.338c3.514-6.433 9.238-13.146 16.366-19.382 5.228-4.56 11.2-8.855 17.63-12.614 2.43-1.423 4.86-2.745 7.29-3.937 2.49-1.217 4.983-2.298 7.415-3.26 7.066-2.795 14.827-6.323 20.708-6.785-.535 0-17.538 1.83-17.538 1.83h-55.686-245.54-84.43zm241.61.214c-.965 14.725 1.89 36.293 8.368 60.24 1.152 4.26 2.406 8.596 3.784 12.982.857 2.71 1.74 5.375 2.646 8-.53.78-1.067 1.558-1.57 2.338-8.082 12.387-12.806 24.093-13.997 34.273-3.417-11.44-5.99-23.97-7.446-37.258-.413-3.808-.737-7.572-.953-11.292-1.595-27.017 1.932-51.51 9.168-69.284zM235.44 851.77c.184-.004.366 0 .554 0h36.396c3.11 0 5.516.584 7.23 1.755 1.703 1.177 2.342 2.7 1.938 4.553l-4.338 19.598h-12.83l4.215-19.075h-32.12l-11.598 52.426-4.184 18.982h32.09l.03-.123 6.43-29.043h-15.076l1.446-6.553h27.905l-8 36.24c-.108.517-.297.985-.553 1.447-.66 1.2-1.81 2.23-3.415 3.077-2.225 1.17-4.888 1.753-8 1.753h-36.364c-3.11 0-5.517-.582-7.23-1.753-1.703-1.172-2.352-2.668-1.938-4.523l16.03-72.452c.412-1.853 1.702-3.376 3.937-4.553.078-.043.167-.052.246-.093 2.04-1.02 4.434-1.596 7.2-1.66zm57.04 0h45.81c3.07 0 5.486.584 7.2 1.755 1.722 1.177 2.382 2.7 1.968 4.553l-8.553 38.642c-.403 1.84-1.724 3.343-3.97 4.522-2.243 1.184-4.886 1.785-7.967 1.785H293.68l-6.43 29.012-1.047 4.767H273.65l.955-4.307 17.875-80.73zm63.285 0h12.552l-14.213 64.21-3.108 14.028h30.027c.316 2.303.683 4.565 1.077 6.8h-45.164l3.57-16.122 15.26-68.915zm-52.24 6.83l-8.338 37.597h31.29l8.306-37.596h-31.258zm-66.72 88.733c.124-.004.246 0 .37 0 1.457 0 2.73.256 3.753.74 1.093.51 1.874 1.27 2.308 2.275.423.975.534 2.08.307 3.292l-.092.462h-3.6l.032-.43c.093-.847-.012-1.512-.338-1.97-.043-.058-.104-.133-.154-.185-.08-.083-.203-.177-.308-.246-.503-.316-1.29-.49-2.307-.49-1.35 0-2.357.234-3.046.707-.67.462-1.094.98-1.232 1.6-.137.63.09.96.247 1.138l.03.03c.2.17.892.57 3.046 1.077 1.95.473 3.24.898 3.97 1.262 1.102.56 1.873 1.288 2.276 2.184.404.886.493 1.924.247 3.046-.247 1.093-.804 2.1-1.63 3.046-.818.945-1.858 1.693-3.108 2.215-1.24.512-2.602.8-4 .8-1.772 0-3.195-.27-4.307-.8-1.162-.55-2-1.42-2.492-2.554-.473-1.1-.573-2.353-.308-3.72l.092-.432h3.54l-.032.43c-.09.818 0 1.477.215 1.97.207.472.6.864 1.23 1.17.67.324 1.507.49 2.462.49.857 0 1.64-.143 2.338-.4.69-.245 1.237-.57 1.63-.983.385-.414.61-.85.71-1.323.097-.424.073-.782-.094-1.077-.188-.315-.558-.595-1.14-.83l-3.014-.893c-1.684-.423-2.817-.827-3.477-1.23-.897-.532-1.543-1.214-1.877-2.03-.335-.808-.37-1.703-.154-2.678.225-1.043.73-2.036 1.506-2.922.788-.896 1.804-1.6 3.015-2.062 1.072-.4 2.2-.637 3.386-.677zm32.305.062c.194-.015.377 0 .584 0l2.215.246.738.062-1.077 2.74-.214.43-1.693-.154c-.5 0-.866.077-1.107.246-.016.012-.047.048-.062.06-.032.03-.086.08-.123.124-.147.195-.327.542-.46 1.17 0 0-.064.265-.123.492h2.646l-.677 3.045h-2.585c-.196.887-2.614 11.722-2.614 11.722h-3.57s2.32-10.412 2.617-11.722h-2.062l.678-3.045h2.03c.1-.424.247-.954.247-.954.216-.985.443-1.692.738-2.184.404-.68.974-1.248 1.692-1.662.592-.344 1.34-.55 2.184-.615zm8.522.154l-1.17 5.26h2.308l-.677 3.045h-2.307c-.187.847-1.66 7.415-1.66 7.415s-.125.79-.125 1.015v.03c.002.002 0 .03 0 .032.002 0 .03-.002.032 0l.37.03 1.69-.123-.183 2.738.03.493-2.43.276c-.966 0-1.673-.156-2.185-.49-.54-.355-.857-.825-.985-1.416-.02-.108-.06-.266-.06-.492 0-.443.083-1.193.368-2.492 0 0 1.293-5.794 1.57-7.015h-1.693l.677-3.046h1.692c.157-.71.708-3.14.708-3.14l2.86-1.506 1.17-.616zm-113.372.122h13.845l-.77 3.446h-10.12c-.16.7-.79 3.53-1.017 4.553h8.768l-.77 3.447h-8.767c-.188.856-1.878 8.46-1.878 8.46h-3.722l4.43-19.905zm18.552 4.86c.14-.016.29 0 .43 0 .887 0 1.705.27 2.492.83l.493.34-1.908 3.138-.524-.37c-.384-.245-.797-.368-1.23-.368-.374 0-.723.133-1.077.37-.375.245-.688.57-.924 1.014-.414.758-.716 1.607-.923 2.523l-1.66 7.567h-3.57l3.292-14.767h3.322s-.114.448-.154.615c.158-.118.324-.28.462-.37.477-.284.98-.46 1.477-.522zm10.583 0c.215-.016.427 0 .646 0 2.01 0 3.53.705 4.524 2.093.62.896.953 2.003.953 3.323 0 .728-.09 1.512-.276 2.368l-.276 1.077h-10.03c-.02.207-.03.43-.03.616 0 .767.157 1.37.492 1.814.158.216.343.41.553.553.396.26.908.4 1.507.4.728 0 1.368-.2 1.97-.584.57-.364 1.116-.946 1.6-1.754h3.814l-.338.738c-.728 1.476-1.745 2.628-3.015 3.445-1.27.818-2.787 1.262-4.46 1.262-2.177 0-3.796-.704-4.8-2.092-.995-1.36-1.21-3.237-.677-5.6.53-2.402 1.592-4.322 3.138-5.66 1.385-1.202 2.957-1.868 4.707-2zm16.03 0c.214-.016.425 0 .645 0 2.01 0 3.528.705 4.523 2.093.62.896.954 2.003.954 3.323 0 .718-.09 1.49-.277 2.338l-.277 1.107h-10.03l-.03.4c-.008.052.002.13 0 .185v.03c0 .148.02.293.03.43.05.562.196 1.03.462 1.386.05.07.098.154.153.215.45.48 1.09.737 1.908.737.728 0 1.378-.2 1.97-.584.57-.364 1.116-.946 1.6-1.754h3.844l-.37.738c-.727 1.476-1.744 2.628-3.014 3.445-1.27.817-2.787 1.262-4.46 1.262-2.177 0-3.796-.704-4.8-2.092-.65-.886-.954-2.015-.954-3.354 0-.208.01-.43.03-.647.04-.512.12-1.03.247-1.6.53-2.392 1.56-4.322 3.106-5.66 1.386-1.202 2.988-1.868 4.738-2zm43.656 0c.22-.016.423 0 .647 0 2.048 0 3.62.693 4.645 2.062 1.014 1.368 1.26 3.214.74 5.538-.405 1.81-.988 3.275-1.786 4.338-.797 1.063-1.814 1.932-3.015 2.523-1.19.59-2.45.892-3.72.892-2.088 0-3.643-.714-4.647-2.092-.65-.876-.985-2.005-.985-3.354 0-.73.08-1.503.277-2.37.59-2.638 1.797-4.648 3.57-5.937 1.3-.94 2.737-1.482 4.276-1.6zm54.056 0c.26-.015.5 0 .77 0 1.24 0 2.214.126 2.953.43.786.317 1.345.762 1.66 1.294.305.502.462 1.118.462 1.876l-.37 2.246-.676 3.046c-.58 2.6-.71 3.574-.74 3.938-.028.492.017.972.155 1.415l.247.8h-3.63l-.154-.46c-.06-.218-.042-.494-.062-.74-.688.424-1.378.8-1.998 1.016-.916.315-1.866.492-2.83.492-1.674 0-2.914-.436-3.662-1.292-.57-.63-.83-1.4-.83-2.277 0-.335.044-.682.123-1.046.167-.748.47-1.44.953-2.06.473-.612 1.03-1.114 1.662-1.478.61-.364 1.29-.623 2-.8l2.184-.37c1.683-.196 2.94-.44 3.845-.707.02-.098.062-.215.062-.215.142-.634.124-1.11-.032-1.354-.012-.016-.048-.048-.06-.06-.035-.037-.086-.092-.124-.124-.37-.294-1.002-.43-1.846-.43-.955 0-1.662.155-2.154.46-.482.305-.93.864-1.323 1.662H300l.34-.74c.442-1.023.97-1.872 1.63-2.522.66-.65 1.55-1.153 2.584-1.507.792-.262 1.657-.435 2.584-.492zm15.598 0c.14-.016.29 0 .43 0 .897 0 1.736.27 2.524.83l.46.34-1.906 3.138-.523-.37c-.385-.245-.778-.368-1.2-.368-.375 0-.744.133-1.11.37-.373.245-.645.57-.89 1.014-.405.758-.717 1.607-.924 2.523l-1.692 7.567h-3.57l3.293-14.767h3.323s-.084.448-.123.615c.157-.118.314-.28.46-.37.47-.284.95-.46 1.447-.522zm10.553 0c.215-.016.426 0 .646 0 2.008 0 3.538.705 4.523 2.093.63.896.953 2.003.953 3.323 0 .728-.12 1.512-.308 2.368l-.246 1.077h-10.03c-.02.207-.062.43-.062.616 0 .767.168 1.37.493 1.814.05.07.128.154.184.215.034.034.09.09.124.122.44.4 1.04.616 1.785.616.727 0 1.367-.2 1.968-.585.57-.364 1.107-.946 1.6-1.754h3.845l-.37.738c-.727 1.477-1.754 2.628-3.014 3.446-1.28.817-2.78 1.26-4.462 1.26-2.176 0-3.764-.703-4.77-2.09-.993-1.36-1.228-3.238-.706-5.6.53-2.403 1.56-4.323 3.107-5.662 1.393-1.2 2.99-1.867 4.737-2zm-53.87.278h3.66s.452 8.763.462 8.89c.146-.313.26-.577.276-.614l4.03-8.276h3.353s.307 8.657.307 8.706c.098-.177 4.584-8.706 4.584-8.706h3.632l-8 14.767h-3.292s-.318-8.007-.338-8.46l-4.122 8.46h-3.385l-1.17-14.767zm-85.96 2.8c-.848.035-1.62.34-2.338.922-.572.453-.958 1.075-1.263 1.754h6.06c.01-.108.032-.24.032-.338 0-.562-.1-.997-.278-1.293-.433-.708-1.076-1.046-2.03-1.046-.058 0-.13-.004-.185 0zm16.03 0c-.85.035-1.62.34-2.34.922-.57.453-.946 1.075-1.26 1.754h6.06c.01-.108.03-.24.03-.338 0-.562-.09-.997-.276-1.293-.085-.144-.202-.287-.307-.4-.41-.424-.977-.646-1.723-.646-.057 0-.128-.004-.184 0zm123.985 0c-.873.026-1.687.32-2.43.922-.562.453-.947 1.075-1.262 1.754h6.03c.01-.108.03-.24.03-.338 0-.562-.09-.997-.276-1.293-.424-.7-1.076-1.036-2.03-1.046-.03 0-.035-.002-.063 0zm-80.607.06c-.814.098-1.57.47-2.276 1.108-.848.768-1.462 1.974-1.817 3.57-.147.67-.215 1.24-.215 1.753 0 .7.134 1.25.4 1.662.07.106.165.22.246.308.438.465 1.05.708 1.815.708.994 0 1.87-.37 2.707-1.14.846-.777 1.45-1.995 1.815-3.63.335-1.496.288-2.613-.185-3.322-.453-.69-1.115-1.015-2.03-1.015-.156 0-.31-.017-.462 0zm55.594 5.385c-.838.226-1.776.417-3.016.584-.925.137-1.585.283-1.97.43-.334.138-.603.33-.83.585-.216.246-.362.504-.43.8-.02.118-.03.24-.03.338v.03c0 .024-.004.07 0 .093.005.045.017.112.03.154.004.013.025.048.03.06.01.028.018.068.03.094.014.025.046.068.063.092.025.035.06.09.092.123.245.275.736.4 1.445.4.778 0 1.526-.15 2.215-.493.68-.335 1.227-.835 1.63-1.416.296-.412.532-1.048.74-1.875zm-165.605-25.68l19.45-85.25h11.44l-17.226 75.598h44.42l-2.223 9.653h-55.862"/><g fill="#bd0000" fill-rule="evenodd"><path d="M178 463.85L136.763 643.76H426.78c-11.82-1.03-21.153-5.18-26.713-12.745-1.032-1.4-1.884-2.906-2.63-4.482-.475-1.16-.92-2.333-1.37-3.52-1.187-3.77-1.66-7.953-1.446-12.41.593-12.425 6.423-27.204 16.524-42.68 10.73-16.447 26.28-33.685 45.533-49.682 4.315-3.583 8.777-7.12 13.448-10.56 5.774-4.247 11.592-8.16 17.413-11.817 21.447-13.5 42.84-22.95 61.797-27.748-18.115 5.91-38.467 15.943-58.574 29.6-.722.49-1.436.99-2.148 1.483-11.156 7.73-21.262 15.94-30.083 24.23-28.383 26.687-43.385 54.34-36.568 70.54.486 1.114 1.066 2.178 1.742 3.186 7.326 10.778 25.485 12.64 48.496 6.855 1.565-.39 3.13-.834 4.742-1.297 7.35-2.122 15.155-4.988 23.193-8.52 1.932-.854 3.885-1.732 5.853-2.668.202-.095.39-.19.593-.297 25.372-12.606 44.87-27.11 49.09-35.825.925-1.896 1.147-3.512.52-4.78-3.013-6.105-24.084-1.98-49.61 9.077-2.05.89-4.125 1.804-6.223 2.78 1.707-1.586 3.484-3.177 5.298-4.743 2.892-2.492 5.887-4.93 9.077-7.336 4.99-3.78 10.037-7.196 15.004-10.225 23.26-17.548 35.02-34.148 32.566-40.308-.463-1.16-1.447-1.96-2.964-2.445-4.85-1.543-13.7.298-24.452 4.705-8.868 3.637-19.053 9.032-29.38 15.746l-1.407.926-.26.148-4.965 3.297 2.853-5.225c4.232-7.747 11.126-15.83 19.71-23.34 6.295-5.49 13.486-10.663 21.228-15.19 2.928-1.714 5.852-3.306 8.78-4.742 3-1.465 6-2.768 8.93-3.927 8.507-3.365 16.628-5.41 23.71-5.965H564.19h-67.056H201.45 178zm212.73.26c-1.16 17.733 2.277 43.705 10.078 72.54 1.387 5.132 2.897 10.354 4.557 15.636 1.03 3.26 2.095 6.47 3.186 9.632-.64.94-1.284 1.877-1.89 2.816-9.732 14.916-15.42 29.013-16.856 41.272-4.114-13.776-7.21-28.866-8.965-44.866-.5-4.584-.89-9.118-1.15-13.597-1.92-32.535 2.327-62.028 11.04-83.433zm-194.244 23.08c.222-.004.44 0 .667 0h43.828c3.747 0 6.644.704 8.707 2.113 2.05 1.418 2.82 3.252 2.334 5.483l-5.223 23.6h-15.45l5.077-22.97h-38.68l-13.966 63.13-5.038 22.86h38.64l.038-.15 7.743-34.972h-18.153l1.742-7.892h33.602l-9.633 43.643c-.13.622-.36 1.184-.668 1.742-.794 1.446-2.18 2.685-4.112 3.705-2.68 1.41-5.886 2.11-9.633 2.11h-43.79c-3.747 0-6.644-.7-8.707-2.11-2.05-1.41-2.832-3.213-2.334-5.447l19.302-87.25c.498-2.23 2.05-4.064 4.742-5.482.095-.05.202-.062.296-.11 2.457-1.23 5.34-1.923 8.67-2.002zm68.688 0h55.165c3.698 0 6.605.704 8.668 2.113 2.075 1.418 2.87 3.252 2.37 5.483L321.08 541.32c-.487 2.216-2.077 4.025-4.78 5.445-2.703 1.425-5.884 2.15-9.595 2.15h-40.087l-7.743 34.936-1.26 5.743H242.5l1.148-5.186 21.526-97.216zm76.208 0h15.116l-17.117 77.322-3.74 16.894h36.16c.378 2.773.82 5.496 1.296 8.187h-54.388l4.298-19.413 18.376-82.99zm-62.908 8.226l-10.04 45.273h37.678l10.003-45.274h-37.64zm-31.677 101.29c.148-.005.296 0 .445 0 1.755 0 3.287.31 4.52.89 1.316.616 2.257 1.532 2.78 2.74.508 1.175.642 2.507.37 3.966l-.112.555h-4.335l.037-.518c.112-1.02-.014-1.82-.407-2.373-.05-.07-.126-.16-.185-.222-.098-.1-.245-.214-.37-.296-.607-.383-1.556-.594-2.78-.594-1.624 0-2.837.283-3.667.852-.807.557-1.316 1.18-1.482 1.927-.165.758.107 1.157.297 1.37l.037.037c.24.205 1.075.685 3.668 1.297 2.347.568 3.902 1.08 4.78 1.518 1.327.676 2.255 1.552 2.74 2.63.487 1.068.594 2.317.297 3.668-.297 1.316-.97 2.53-1.964 3.668-.984 1.138-2.237 2.04-3.742 2.668-1.494.616-3.133.963-4.817.963-2.134 0-3.847-.323-5.186-.963-1.398-.664-2.408-1.712-3-3.075-.57-1.328-.69-2.835-.37-4.483l.11-.52h4.26l-.036.52c-.107.984-.002 1.778.26 2.37.248.57.722 1.04 1.48 1.41.807.39 1.815.59 2.965.59 1.03 0 1.973-.172 2.815-.48.83-.297 1.49-.688 1.963-1.186.463-.498.734-1.024.852-1.593.12-.51.09-.94-.11-1.297-.226-.38-.672-.715-1.372-1l-3.63-1.074c-2.028-.51-3.392-.996-4.187-1.482-1.078-.64-1.856-1.46-2.26-2.445-.402-.973-.445-2.05-.184-3.224.273-1.256.88-2.452 1.815-3.52.95-1.078 2.174-1.924 3.632-2.48 1.29-.485 2.646-.768 4.075-.816zm38.9.075c.236-.018.456 0 .705 0l2.668.297.89.074-1.298 3.3-.26.517-2.037-.185c-.6 0-1.043.093-1.334.296-.018.015-.055.06-.073.074-.04.035-.104.094-.148.15-.18.233-.397.65-.557 1.407 0 0-.077.32-.148.59h3.186l-.814 3.67h-3.112l-3.15 14.115h-4.297s2.794-12.54 3.15-14.116h-2.483l.815-3.67h2.444c.12-.508.297-1.147.297-1.147.262-1.186.534-2.038.89-2.63.486-.82 1.172-1.503 2.038-2 .713-.415 1.614-.663 2.63-.742zm10.264.186l-1.407 6.335h2.78l-.817 3.67h-2.778c-.225 1.02-2 8.928-2 8.928s-.15.95-.15 1.222v.037c.002.002 0 .035 0 .037.002.002.037 0 .038 0l.445.037 2.038-.147-.222 3.297.037.593-2.927.333c-1.162 0-2.014-.19-2.63-.592-.652-.427-1.032-.993-1.186-1.705-.023-.13-.074-.32-.074-.593 0-.534.1-1.436.445-3 0 0 1.558-6.978 1.89-8.448h-2.038l.816-3.67h2.037c.19-.853.852-3.778.852-3.778l3.446-1.815 1.408-.74zm-136.523.148h16.672l-.927 4.15h-12.19c-.19.84-.95 4.25-1.222 5.483h10.56l-.926 4.15h-10.56c-.224 1.03-2.26 10.188-2.26 10.188h-4.482l5.335-23.97zm22.34 5.854c.168-.02.35 0 .52 0 1.066 0 2.052.324 3 1l.593.408-2.297 3.78-.63-.446c-.462-.296-.96-.445-1.482-.445-.45 0-.87.16-1.296.445-.45.296-.826.69-1.11 1.223-.5.913-.864 1.935-1.112 3.038l-2 9.115h-4.3l3.965-17.784h4.002s-.14.54-.187.742c.19-.142.39-.338.556-.444.573-.343 1.18-.557 1.778-.63zm12.745 0c.26-.02.514 0 .778 0 2.42 0 4.25.848 5.446 2.52.747 1.078 1.15 2.412 1.15 4 0 .878-.11 1.822-.335 2.853l-.332 1.298H189.15c-.024.25-.037.516-.037.74 0 .926.19 1.653.593 2.187.19.26.413.495.667.666.477.313 1.094.483 1.815.483.877 0 1.648-.24 2.37-.704.69-.44 1.347-1.14 1.928-2.113h4.594l-.408.89c-.877 1.778-2.1 3.165-3.63 4.15-1.53.983-3.357 1.518-5.373 1.518-2.62 0-4.57-.848-5.78-2.52-1.198-1.635-1.455-3.897-.815-6.742.64-2.893 1.917-5.205 3.78-6.817 1.667-1.447 3.56-2.25 5.667-2.408zm19.302 0c.26-.02.514 0 .778 0 2.42 0 4.25.848 5.447 2.52.745 1.078 1.147 2.412 1.147 4 0 .866-.108 1.796-.333 2.816l-.334 1.334h-12.078c-.01.166-.025.315-.037.48-.008.064.004.158 0 .224v.037c0 .177.026.35.037.517.06.676.236 1.24.556 1.668.06.083.118.185.185.26.543.58 1.312.888 2.297.888.878 0 1.66-.242 2.37-.704.69-.44 1.347-1.14 1.928-2.113h4.63l-.444.89c-.877 1.778-2.1 3.165-3.63 4.15-1.53.983-3.357 1.518-5.372 1.518-2.62 0-4.57-.848-5.78-2.52-.782-1.066-1.148-2.425-1.148-4.038 0-.25.013-.517.037-.778.048-.617.143-1.24.297-1.927.64-2.88 1.88-5.205 3.742-6.817 1.667-1.447 3.597-2.25 5.704-2.408zm52.572 0c.265-.02.508 0 .778 0 2.466 0 4.36.834 5.594 2.482 1.222 1.648 1.518 3.87.89 6.67-.486 2.18-1.19 3.942-2.15 5.223-.96 1.28-2.184 2.326-3.63 3.038-1.434.712-2.953 1.075-4.483 1.075-2.513 0-4.385-.86-5.594-2.52-.782-1.054-1.185-2.413-1.185-4.038 0-.877.097-1.81.334-2.852.71-3.178 2.162-5.598 4.296-7.15 1.567-1.13 3.297-1.785 5.15-1.927zm65.094 0c.313-.02.602 0 .926 0 1.494 0 2.668.15 3.557.52.948.378 1.62.914 2 1.555.368.604.556 1.347.556 2.26l-.445 2.704-.815 3.668c-.7 3.13-.854 4.303-.89 4.742-.035.593.02 1.17.186 1.704l.296.965h-4.372l-.185-.556c-.07-.262-.05-.594-.074-.89-.83.51-1.66.96-2.407 1.222-1.103.38-2.247.593-3.41.593-2.014 0-3.506-.525-4.407-1.556-.688-.76-1-1.687-1-2.743 0-.403.053-.82.148-1.26.2-.9.567-1.735 1.148-2.482.57-.735 1.242-1.34 2-1.778.736-.438 1.555-.75 2.41-.963l2.63-.445c2.027-.238 3.54-.533 4.63-.853.024-.118.075-.26.075-.26.17-.762.15-1.335-.037-1.63-.014-.018-.06-.057-.075-.073-.04-.043-.1-.11-.148-.15-.446-.352-1.206-.517-2.223-.517-1.15 0-2 .188-2.593.555-.58.368-1.118 1.04-1.592 2h-4.483l.408-.888c.533-1.233 1.17-2.256 1.963-3.038.794-.783 1.867-1.39 3.112-1.815.954-.314 1.996-.523 3.112-.592zm18.784 0c.167-.02.35 0 .518 0 1.08 0 2.09.324 3.038 1l.556.408-2.297 3.78-.63-.446c-.463-.296-.936-.445-1.446-.445-.45 0-.895.16-1.333.445-.45.296-.777.69-1.074 1.223-.486.913-.862 1.935-1.11 3.038l-2.04 9.115h-4.297l3.964-17.784h4s-.1.54-.147.742c.19-.142.378-.338.555-.444.565-.343 1.145-.557 1.742-.63zm12.707 0c.26-.02.515 0 .78 0 2.418 0 4.26.848 5.445 2.52.76 1.078 1.15 2.412 1.15 4 0 .878-.146 1.822-.372 2.853l-.296 1.298H357.61c-.024.25-.075.516-.075.74 0 .926.202 1.653.593 2.187.06.083.155.185.222.26.04.04.107.11.148.147.53.482 1.252.74 2.15.74.877 0 1.647-.24 2.37-.703.688-.44 1.334-1.14 1.927-2.112h4.63l-.444.89c-.876 1.777-2.112 3.164-3.63 4.148-1.54.984-3.344 1.52-5.37 1.52-2.62 0-4.535-.85-5.744-2.52-1.197-1.636-1.48-3.898-.852-6.743.64-2.893 1.88-5.205 3.742-6.817 1.68-1.446 3.6-2.25 5.705-2.408zm-64.87.333h4.408s.544 10.554.556 10.708c.178-.378.316-.696.333-.74l4.854-9.967h4.04s.37 10.427.37 10.486c.118-.213 5.52-10.485 5.52-10.485h4.37l-9.63 17.785h-3.965s-.384-9.643-.408-10.19c-1.636 3.356-4.964 10.19-4.964 10.19h-4.076L298.11 603.3zm-103.514 3.373c-1.02.043-1.948.41-2.815 1.11-.687.547-1.15 1.295-1.518 2.113h7.298c.012-.13.037-.29.037-.408 0-.675-.12-1.2-.333-1.556-.522-.853-1.295-1.26-2.445-1.26-.07 0-.156-.003-.224 0zm19.302 0c-1.02.043-1.948.41-2.815 1.11-.688.547-1.14 1.295-1.52 2.113h7.3c.01-.13.036-.29.036-.408 0-.675-.11-1.2-.334-1.556-.104-.173-.244-.345-.37-.48-.496-.513-1.177-.78-2.075-.78-.068 0-.153-.003-.222 0zm149.306 0c-1.05.032-2.03.388-2.927 1.11-.676.547-1.14 1.295-1.52 2.113h7.262c.01-.13.036-.29.036-.408 0-.675-.108-1.2-.333-1.556-.51-.84-1.295-1.247-2.445-1.26h-.075zm-97.067.074c-.98.116-1.892.563-2.742 1.334-1.02.925-1.76 2.378-2.186 4.298-.18.806-.26 1.495-.26 2.112 0 .842.162 1.503.482 2 .085.128.198.263.296.37.527.56 1.263.853 2.186.853 1.197 0 2.252-.446 3.26-1.37 1.02-.937 1.747-2.404 2.186-4.372.403-1.8.347-3.147-.222-4-.546-.83-1.343-1.223-2.446-1.223-.187 0-.374-.022-.555 0zm66.946 6.483c-1.007.273-2.137.503-3.63.704-1.115.166-1.91.34-2.372.52-.402.165-.726.395-1 .703-.26.296-.435.607-.518.963-.023.142-.037.29-.037.408v.037c.002.028-.003.083 0 .11.008.055.023.136.037.186.006.018.03.06.037.075.013.032.02.08.036.11.017.03.055.084.074.112.03.043.074.108.112.15.296.33.887.48 1.74.48.937 0 1.838-.178 2.668-.593.818-.403 1.478-1.004 1.964-1.704.356-.498.64-1.264.89-2.26z"/><g stroke-width="1pt"><path d="M122.047 704.66h8.844l3.973-16.597h14.37l1.848-7.113h-14.427l2.395-10.67H154.4l1.85-8.3h-24.244l-9.96 42.68zM161.716 704.66l2.655-11.144c1.4-6.034 4.352-11.38 9.936-11.38.498 0 .984.248 1.352.307l2.157-8.547c-.497 0-1.043-.06-1.66-.06-4.113 0-7.563 2.893-9.863 7.043h-.237c.344-2.03.64-3.95.865-5.858h-7.623c-.438 2.466-1.114 7.29-2.146 11.642l-4.338 17.997h8.904zM201.052 696.658c-2.454 1.198-5.252.89-8.512.89-2.573 0-4.564-.45-5.655-1.328-.57-.96-.806-2.455-.76-3.415 12.01.32 19.586-2.454 19.966-10.04.285-5.728-3.9-8.93-9.98-8.93-10.86 0-17.974 9.58-18.437 18.804-.403 8.05 3.77 12.02 12.377 12.02 3.308 0 7.695-.38 11.287-1.458l-.285-6.544zm-3.248-13.894c-.142 2.82-3.628 2.987-10.492 2.928.747-2.478 3.26-4.742 7.374-4.742 2.027 0 3.19.77 3.118 1.814zM232.48 696.658c-2.453 1.198-5.25.89-8.5.89-2.584 0-4.564-.45-5.654-1.328-.57-.96-.818-2.455-.77-3.415 12.02.32 19.584-2.454 19.976-10.04.284-5.728-3.9-8.93-9.983-8.93-10.872 0-17.985 9.58-18.448 18.804-.39 8.05 3.782 12.02 12.377 12.02 3.32 0 7.705-.38 11.298-1.458l-.297-6.544zm-3.235-13.894c-.143 2.82-3.628 2.987-10.504 2.928.76-2.478 3.26-4.742 7.375-4.742 2.027 0 3.2.77 3.13 1.814zM278.243 704.66c.072-3.758.973-9.662 1.91-13.538l3.805-16.1c-2.42-.818-6.19-1.186-9.817-1.186-14.723 0-22.026 10.907-22.536 21.127-.32 6.414 3.154 9.698 8.56 9.698 3.497 0 7.445-1.695 10.516-6.793h.13c-.237 2.455-.522 4.837-.676 6.794h8.11zm-6.08-16.93c-1.732 7.54-5.265 9.817-7.897 9.817-2.454 0-3.52-1.742-3.38-4.28.285-5.726 4.814-12.317 10.53-12.317.923 0 1.647-.166 2.322-.332l-1.576 7.113zM284.04 703.262c1.708 1.328 5.288 1.34 9.023 1.4 7.978.058 14-3.428 14.357-9.83.2-4.268-3.106-6.793-6.343-8.488-2.335-1.126-3.51-2.205-3.45-3.462.083-1.695 1.672-1.932 4.007-1.932 2.632 0 4.742.32 5.952.557l2.395-6.426c-1.363-.817-4.09-1.244-7.587-1.244-7.742 0-13.41 4.09-13.73 10.303-.188 3.84 2.574 6.424 5.917 8.18 2.703 1.386 3.628 2.453 3.557 3.96-.083 1.516-1.435 1.267-3.89 1.267-2.88 0-6.07-.38-7.752-.64l-2.454 6.355zM331.344 704.66l7.173-29.638h-8.785l-7.22 29.64h8.832zm4.114-33.195c3.01 0 5.69-2.49 5.857-6.757.142-2.893-1.73-3.913-4.494-3.913-2.88 0-5.51 1.873-5.666 4.67-.142 2.823 1.73 6 4.304 6zM348.297 704.66l3.13-13.35c1.625-6.792 5.122-9.175 8.003-9.175 2.276 0 2.94.972 2.833 2.383-.06 1.138-.237 2.336-.474 3.403l-3.984 16.74h8.844l4.197-17.557c.32-1.518.675-3.782.747-5.157.26-5.347-2.407-7.292-7.315-7.292-3.937 0-7.767 1.826-10.79 5.786h-.118l.806-5.418h-7.8c-.51 2.537-1.163 5.608-2.088 9.188l-4.837 20.45h8.844zM386.354 704.66h8.844l3.983-16.597h14.358l1.85-7.113H400.96l2.394-10.67h15.353l1.85-8.3h-24.245l-9.958 42.68zM426.022 704.66l2.656-11.144c1.4-6.034 4.35-11.38 9.935-11.38.498 0 .984.248 1.35.307l2.16-8.547c-.5 0-1.044-.06-1.66-.06-4.115 0-7.565 2.893-9.865 7.043h-.237c.345-2.03.64-3.95.867-5.858h-7.623c-.427 2.466-1.115 7.29-2.146 11.642l-4.34 17.997h8.904zM465.36 696.658c-2.455 1.198-5.253.89-8.514.89-2.572 0-4.564-.45-5.655-1.328-.568-.96-.805-2.455-.757-3.415 12.01.32 19.585-2.454 19.964-10.04.285-5.728-3.9-8.93-9.982-8.93-10.86 0-17.973 9.58-18.435 18.804-.403 8.05 3.782 12.02 12.377 12.02 3.307 0 7.706-.38 11.286-1.458l-.284-6.544zm-3.25-13.894c-.142 2.82-3.628 2.987-10.492 2.928.747-2.478 3.26-4.742 7.374-4.742 2.028 0 3.19.77 3.118 1.814zM496.788 696.658c-2.455 1.198-5.252.89-8.5.89-2.585 0-4.565-.45-5.656-1.328-.57-.96-.818-2.455-.77-3.415 12.02.32 19.585-2.454 19.976-10.04.285-5.728-3.9-8.93-9.982-8.93-10.872 0-17.985 9.58-18.447 18.804-.393 8.05 3.78 12.02 12.376 12.02 3.32 0 7.706-.38 11.298-1.458l-.296-6.544zm-3.237-13.894c-.14 2.82-3.627 2.987-10.503 2.928.76-2.478 3.26-4.742 7.374-4.742 2.028 0 3.202.77 3.13 1.814zM531.927 660.795l-3.33 13.468c-1.21-.498-2.787-.427-4.02-.427-11.358 0-19.396 9.722-19.93 20.25-.355 7.42 3.605 10.575 8.703 10.575 3.568 0 7.326-1.576 10.172-5.654h.118l-.676 5.655h8.04c.366-3.556 1.137-7.788 2.002-11.653l7.694-32.212h-8.773zm-6.923 28.95c-1.387 5.846-4.66 7.802-7.244 7.802-2.573 0-4.007-1.79-3.83-4.98.297-5.903 4.352-11.617 9.627-11.617 1.482 0 2.75.225 3.45.557l-2.003 8.24zM552.093 704.66c10.315 0 18.27-7.812 18.827-18.447.344-7.042-4.043-12.377-12.14-12.377-10.694 0-18.364 8.655-18.898 19.11-.367 7.613 4.54 11.715 12.21 11.715zm1.388-7.113c-3.01 0-4.67-1.92-4.493-4.79.237-4.777 3.19-11.807 8.275-11.807 3.51 0 4.59 2.69 4.446 5.335-.26 5.216-3.438 11.262-8.227 11.262zM581.91 704.66l3.2-13.538c1.34-6.035 4.684-10.172 7.683-10.172 2.158 0 2.75 1.576 2.644 3.64-.06 1.066-.296 2.264-.545 3.45l-3.96 16.62h8.536l3.2-13.598c1.47-6.224 4.625-10.112 7.565-10.112 2.027 0 2.87 1.446 2.774 3.51-.06 1.196-.308 2.512-.617 3.71l-3.84 16.49h8.595l4.137-17.557c.32-1.577.688-4.03.747-5.288.26-5.216-2.29-7.98-6.89-7.98-3.935 0-7.764 1.78-10.67 5.526-.106-2.702-2.038-5.524-6.828-5.524-3.876 0-7.575 1.755-10.54 5.727h-.118l.794-4.54h-7.61c-.5 2.536-1.103 5.607-2.028 9.187l-4.766 20.45h8.536z"/></g></g><g><g fill="#fab60f"><path d="M588.555 145l-.005.002h.006c-2.75 4.155-3.747 9.157-4.585 14.372-1.026 6.35-2.108 12.446-4.354 18.42-2.698 7.164-7.23 15.145-15.116 21.392-8.196-22.193-20.128-42.572-35.022-60.394 9.398-3.756 18.622-3.697 26.205-2.447 6.3 1.043 12.12 3.153 18.135 5.438 4.93 1.884 9.764 3.52 14.737 3.216zM497.047 53.493l-.003.004h.006c-.305 4.97 1.332 9.8 3.214 14.736 2.286 6.014 4.396 11.834 5.44 18.133 1.25 7.59 1.307 16.824-2.458 26.23-17.848-14.873-38.255-26.777-60.466-34.942 6.26-7.952 14.277-12.512 21.472-15.22 5.976-2.247 12.07-3.33 18.424-4.358 5.212-.836 10.216-1.833 14.37-4.583zM574.136 235.108c9.946 1.47 17.86 6.11 23.775 10.96 4.932 4.055 8.918 8.792 12.985 13.78 3.33 4.094 6.695 7.93 11.152 10.15h-44.904c-.014-11.894-1.05-23.548-3.007-34.89zM247.043 53.496l.003.003v-.006c4.155 2.75 9.16 3.746 14.372 4.585 6.35 1.026 12.446 2.11 18.42 4.353 7.197 2.71 15.214 7.27 21.473 15.222-22.213 8.164-42.616 20.07-60.464 34.942-3.766-9.406-3.71-18.64-2.457-26.23 1.042-6.3 3.152-12.12 5.437-18.136 1.882-4.93 3.52-9.763 3.216-14.734zM155.537 145.003l.004.002V145c4.97.304 9.804-1.333 14.737-3.215 6.014-2.286 11.834-4.396 18.13-5.44 7.586-1.25 16.81-1.306 26.206 2.45-14.894 17.82-26.82 38.2-35.02 60.392-7.887-6.248-12.418-14.226-15.116-21.39-2.246-5.976-3.328-12.072-4.355-18.423-.838-5.213-1.836-10.217-4.585-14.37zM122.047 270c4.457-2.223 7.82-6.056 11.154-10.152 4.065-4.986 8.05-9.724 12.982-13.776 5.916-4.853 13.824-9.493 23.773-10.962-1.957 11.34-2.99 22.994-3.003 34.89h-44.905zM372.045 20v.005l.003-.005c2.222 4.46 6.057 7.824 10.152 11.156 4.987 4.065 9.726 8.05 13.778 12.982 4.882 5.952 9.552 13.924 10.99 23.96-11.352-1.947-23.015-2.973-34.922-2.973-11.906 0-23.57 1.026-34.923 2.974 1.44-10.036 6.108-18.01 10.99-23.96 4.054-4.933 8.79-8.92 13.778-12.985 4.096-3.33 7.93-6.696 10.155-11.155z"/></g><path fill="#d52736" d="M330.338 270.045l15.43-.044c2.028-13.033-1.936-23.068-15.12-20.673-11.11 2.017-23.045 13.055-30.258 20.674l20.347-.09c2.267-1.49 6.704-3.19 8.526-1.924.682.475 1.038 1.148 1.075 2.06z"/><path fill="#d52736" d="M399.734 270.002h19.252c.916-22.735-2.746-46.212-13.316-66.524-9.613-18.48-25.504-31.044-46.077-34.08-30.032-4.43-60.335 8.283-85.954 26.472-27.895 19.804-50.92 46.7-71.04 74.132l25.43-.037c22.896-32.45 75.556-81.717 114.294-82.04 12.346-.1 24.897 2.796 34.178 11.076 6.724 6 14.876 17.652 14.477 27.108-.238 5.608-5.214 7.326-9.986 5.59-3.707-1.35-6.325-4.738-8.918-8.3-8.43-11.573-21.577-17.236-35.998-15.263-17.2 2.352-38.52 15.708-52.273 27.854-11.86 10.475-22.746 21.94-33.015 34.012h27.343c10.02-12.1 20.603-22.416 34.207-30.89 4.305-2.68 9.606-5.516 15.178-7.432 14.056-4.83 28.045-3.608 34.256 13.893 2.44 6.88 2.8 12.917 2.088 23.978v.452h18.59l.05-.568c.013-6.057-.12-10.138.427-16.142.47-5.173 2.076-10.534 6.88-11.172 10.214-2.14 9.724 20.58 9.924 27.882z"/><path fill="#d52736" d="M439.23 270.002h19.41c.94-21.093-.87-46.082-7.693-67.903-1.347-4.305-2.886-8.483-4.634-12.472-4.132-9.43-9.692-17.965-16.32-25.854-7.368-8.763-16.147-16.642-26.043-22.85-2.92-1.83-5.948-3.52-9.075-5.05v-.002c-3.103-1.517-6.31-2.874-9.613-4.046l-.012-.004c-37.802-13.422-76.035-3.877-108.106 13.567-6.253 3.4-12.27 7.1-18 10.986-5.727 3.882-11.18 7.962-16.31 12.122l-.01.01c-6.087 4.936-13.705 11.693-21.243 19.678-1.484 1.573-2.95 3.174-4.376 4.793-3.815 4.324-9.694 10.387-7.95 16.655 1.383 4.972 7.797 3.507 10.032 1.794 3.43-1.84 7.197-4.758 10.42-7.485 4.365-3.695 8.488-7.673 12.81-11.42 17.48-15.152 35.7-26.838 53.645-34.746 3.913-1.725 7.83-3.276 11.732-4.646 3.89-1.366 7.758-2.55 11.593-3.546l.018-.004c33.394-8.67 69.682-3.054 92.916 24.18 22.38 26.23 26.467 61.344 26.81 96.238zm-240.854-29.654c2.085-1.947 4.21-4.487 6.425-7.3 3.1-3.93 3.41-7.735 2.187-10.482-.456-1.026-1.13-1.908-1.947-2.592-.812-.678-1.77-1.16-2.803-1.4-2.526-.576-5.546.328-8.11 3.448-2.9 3.527-6.904 9.56-7.722 14.898-.153 1-.194 1.97-.09 2.883.1.887.336 1.73.735 2.5l.003.008h.002c.653 1.254 1.754 1.914 3.223 1.97.307.01.638-.003.99-.042.344-.038.717-.106 1.112-.2l.002.004.018-.004c1.978-.474 3.955-1.805 5.976-3.69z"/><path fill="#d52736" d="M487.785 270.008l.138-.003h.07c2.03.11 5.556-.824 7.59-4.253.404-.686.752-1.47 1.016-2.36.268-.905.455-1.933.533-3.086h.002l.014-.237c1.542-53.914-14.97-98.544-43.006-128.866-5.444-5.888-11.332-11.244-17.612-16.026-6.276-4.78-12.935-8.98-19.926-12.56l-.112-.055-.003-.003c-23.563-12.042-50.287-16.667-76.518-14.445-5.117.433-10.203 1.125-15.228 2.07-5.038.946-10.034 2.15-14.956 3.6l-.07.023c-26.976 7.98-52.08 23.82-72.536 44.602-3.984 4.05-7.792 8.28-11.392 12.67-1.79 2.18-3.535 4.405-5.224 6.663 14.346-12.378 29.737-23.235 45.836-31.86 3.625-1.943 7.272-3.768 10.93-5.46 3.662-1.695 7.37-3.277 11.118-4.734l.01-.005.012-.005c14.222-5.527 28.243-9.053 42.268-10.628 14.024-1.576 28.057-1.2 42.308 1.064 10.14 1.614 20.04 4.27 28.958 7.984 1.73.72 3.433 1.486 5.1 2.295 1.644.797 3.264 1.644 4.85 2.54h.004l.024.013v.002c31.395 17.192 53.208 52.47 62.815 92.3 1.87 7.767 3.282 15.702 4.208 23.695.925 7.99 1.37 16.07 1.313 24.132v.003l-.003.464c.16 4.313 1.638 7.922 4.172 9.547.47.302.98.538 1.525.69h.003c.555.16 1.145.238 1.767.228z"/><path fill="#fab60f" d="M431.648 90.33c75.486 24.933 130.04 95.92 130.357 179.674h-37.35c2.47-73.162-29.46-139.202-93.007-179.674z"/><path fill="#d52736" d="M212.474 328.75h-15.108l-3.74 13.163h-12.043l15.932-50.412h15.258l16.38 50.413h-12.565l-4.114-13.164zm-13.388-8.528h11.592c-3.04-9.85-5.01-16.606-5.908-20.27h-.15l-2.394 9.574-3.14 10.696zm68.884 8.527h-15.11l-3.74 13.163h-12.04l15.93-50.412h15.26l16.38 50.413h-12.567l-4.113-13.164zm-13.39-8.528h11.594c-3.042-9.85-5.01-16.606-5.91-20.27h-.15l-2.392 9.574-3.142 10.696zm41.583 21.467v-49.516c4.987-.75 10.322-1.123 16.006-1.123 10.746 0 18.462 2.245 23.137 6.745 4.675 4.5 7.006 10.385 7.006 17.64 0 8.577-2.655 15.22-7.98 19.934-5.32 4.71-13.536 7.066-24.63 7.066-5.137 0-9.65-.25-13.54-.747zm11.594-41.29v32.837c.648.15 2.045.223 4.19.223 5.757 0 10.22-1.52 13.374-4.55 3.156-3.028 4.727-7.367 4.727-13.027 0-5.185-1.434-9.137-4.314-11.855-2.88-2.717-7.03-4.077-12.44-4.077-2.27 0-4.115.152-5.536.45zm46.968-8.9h11.594v19.372h19.82v-19.37h11.594v50.41H386.14v-21.017h-19.82v21.018h-11.595V291.5zm85.04 37.25h-15.11l-3.738 13.163h-12.044l15.933-50.412h15.26l16.38 50.413H443.88l-4.115-13.164zm-13.39-8.528h11.595c-3.04-9.85-5.01-16.606-5.91-20.27h-.148l-2.394 9.574-3.142 10.696zm68.885 8.527h-15.11l-3.74 13.163h-12.04L480.3 291.5h15.26l16.38 50.413h-12.566l-4.114-13.164zm-13.39-8.528h11.595c-3.042-9.85-5.012-16.606-5.91-20.27h-.15l-2.392 9.574-3.142 10.696zm41.583 21.69v-49.738c4.24-.75 9.45-1.123 15.634-1.123 7.63 0 13.114 1.26 16.454 3.78 3.343 2.517 5.013 6.12 5.013 10.807 0 2.792-.835 5.31-2.518 7.567-1.682 2.256-3.864 3.85-6.532 4.774v.3c3.142 1.17 5.41 4.263 6.806 9.273 2.568 9.028 3.963 13.814 4.188 14.363H550.68c-.997-1.87-2.194-5.784-3.59-11.744-.698-2.992-1.646-5.086-2.842-6.283-1.197-1.196-3.117-1.796-5.76-1.796h-3.59v19.823h-11.445zm11.445-41.96v13.837h4.786c2.893 0 5.174-.662 6.845-1.97 1.67-1.31 2.504-3.067 2.504-5.287 0-2.22-.747-3.94-2.256-5.148-1.508-1.21-3.653-1.807-6.42-1.807-2.717 0-4.538.125-5.46.373z"/></g></svg>